<svg fill="none" height="380" viewBox="0 0 434 380" width="434" xmlns="http://www.w3.org/2000/svg" xmlns:xlink="http://www.w3.org/1999/xlink"><linearGradient id="a" gradientUnits="userSpaceOnUse" x1="391.289" x2="519.23" y1="376.301" y2="-23.3933"><stop offset="0" stop-color="#ffe5a8"/><stop offset="1" stop-color="#fecc55"/></linearGradient><g clip-rule="evenodd" fill-rule="evenodd"><path d="m8.99957 219.754c-4.33162-48.549 41.94193-86.316 81.53303-118.454 37.9754-30.8262 82.3904-53.455 133.0864-55.7633 55.457-2.5251 118.315 3.1178 153.635 42.7084 34.305 38.4519 16.697 93.4329 11.898 142.8369-4.347 44.753-.336 96.192-37.893 124.777-36.619 27.871-90.077 15.486-137.138 8.439-39.226-5.874-72.498-22.294-104.099-44.563-40.8158-28.761-96.8251-52.937-101.02243-99.981z" fill="url(#a)" fill-opacity=".8"/><path d="m167.677 181.516c-1.705-6.614-3.273-9.419-6.303-11.718-2.833-2.15-6.969-3.956-13.004-5.276-6.285-1.099-6.463-4.366-8.039-9.617-.46-1.579-2.738-1.999-3.722-.861-.138-.15-.283-.287-.433-.411.134-.753-.962-2.911-.925-3.631.382-7.517-2.076-11.292-8.212-12.695-1.335-.305-10.399-.485-11.7-.125-5.688 1.573-11.288 6.566-10.431 12.582-1.785 2.334-3.533 3.758-6.2874 4.51-6.1303.779-12.2601 1.471-18.3921 2.064-12.0031 1.882-23.2571 8.237-30.9489 17.504-.7095.855-.9144 2.016-.2883 2.929-.4905 2.101-3.2514 7.197-1.079 8.638-3.5724 8.545-11.792 25.062-11.8074 29.78-.0648 19.824 2.0762 45.626 21.6348 56.596.7831.77.8951 1.622 1.2342 2.767.8599 3.609 3.9827 6.188 7.4008 5.978 16.838.374 33.1467-1.68 49.9853-1.78 7.425-.044 16.356 1.065 22.806 1.803 6.451.739 12.963.085 19.153-1.803.522.822 1.577 1.301 2.648 1.065 6.417-1.275 11.607-5.231 16.127-9.554 1.381-2.513 6.775-9.673 4.631-12.165 1.944-8.218 1.843-17.048-1.611-24.873.49-1.434-.403-3.011 0-4.492.291-1.072 1.038-1.515 1.414-2.577.528-1.493-.047-3.497-.642-5.021-.244-.76.449-1.578.642-2.353.913-3.656-1.178-3.334-2.686-5.778.022-.007.414-1.752.412-1.744.231-1.245-.347-2.841-.852-3.881-.341-.703-1.071-1.143-1.797-1.062.731-2.482 1.656-4.547 2.649-6.938 1.758-4.214 3.984-8.25 6.508-12.065 1.034-1.562-.355-3.371-2.028-3.478-5.414-.344-10.77-1.123-16.057-2.318z" fill="#fff"/><path d="m151.874 213.387c-2.166-.85-4.498-1.319-6.842-1.501 1.262-.221 2.528-.435 3.803-.544.891-.077 1.716-.069 2.385.607.446.449.656 1.029.949 1.561-.096-.043-.196-.084-.295-.123zm23.244-7.942c-3.546.181-7.097 1.024-10.305 2.552-1.313.627-2.502 1.531-2.851 3.018-.176.759-.133 1.544-.039 2.311.071.581.088 1.323.593 1.716.086.067.178.118.274.155-1.184.534-2.311 1.176-3.312 1.838-.916.604-1.857 1.536-2.279 2.587-.036-.12-.071-.231-.106-.337-.72-2.129-1.829-3.873-3.576-5.045.309-.139.522-.468.422-.922-.414-1.896-2.165-3.544-4.143-3.426-2.166.127-4.492.915-6.45 1.912-.714-.016-1.426-.006-2.13.025-.122.004-.116.169 0 .182.571.073 1.142.153 1.713.247 1.358.217 2.712.493 4.036.835 1.589.411 3.232.824 4.717 1.542 2.879 1.396 4.662 5.044 4.296 8.218-.061.52-.262 2.093-.984 1.931-.61-.137-.853-1.411-1.066-1.883-.571-1.252-1.601-2.07-2.835-2.624-1.45-.652-3.001-1.092-4.504-1.604-.85-.292-1.701-.584-2.554-.873-.873-.3-1.702-.713-2.632-.503-.561.127-.626.796-.311 1.18.48.585 1.192.757 1.882.998.912.317 1.822.634 2.731.951 1.407.489 2.88.902 4.251 1.501l-.043.098c-.111-.032-.242.08-.221.217.206 1.266.491 2.73.174 3.998-.25 1.006-1.132 2.12-2.279 1.824.18-.165.247-.448.126-.711-.454-.97-6.401-4.802-6.932-3.379-.017.051.037.088.081.08.451-.094 1.209.677 1.57.922.523.352 1.053.696 1.569 1.059.566.395 1.118.81 1.655 1.238.423.337.742.687 1.227.858-.254.121-.456.346-.542.633-.219.75-.641 1.386-1.375 1.717-.769.344-1.636.127-2.445.211-1.104.112-2.066.636-2.87 1.386-1.689 1.577-2.536 4.356-4.897 5.101-1.411.445-2.976.165-4.404-.037-1.594-.225-3.147-.403-4.753-.168-1.538.225-2.992.757-4.396 1.407-1.317.608-2.772 1.298-3.94 2.205-.241-.741-.484-1.475-.668-2.233-.434-1.79-.668-3.614-.725-5.454-.053-1.751.045-3.51.195-5.254.075-.871.192-1.738.266-2.609.02-.219.059-.454.089-.688 2.085-1.231 4.276-2.174 6.484-3.145.007-.002.012-.006.018-.008.069-.031.135-.061.204-.09-.002-.004-.004-.008-.008-.012.252-.154.428-.36.534-.591 3.183-2.111 5.843-4.994 7.827-8.356.832-1.409 1.632-2.871 2.719-4.105 1.159-1.318 2.534-2.1 4.236-2.507 1.989-.478 4.04-.764 6.078-.926 1.113-.088 2.357-.225 3.57-.219.845.006 1.673.078 2.432.287 1.125.31 1.782 1.165 2.488 2.03.675.83 1.346 1.661 1.976 2.526.597.82 1.16 1.667 1.65 2.556.293.532.565 1.08.794 1.646.08.2.186.426.235.634.048.209-.042.43.193.43-.968.014-.958 1.562.004 1.505 3.768-.219-1.629-7.577-2.418-8.603-1.117-1.452-2.269-3.346-4.057-4.021-.026-.01-.053-.019-.079-.027.521-.494.932-1.084 1.325-1.685.405-.619.888-1.327 1.021-2.061.084-.468-.497-.734-.773-.325-.401.597-.594 1.352-.894 2.008-.305.665-.677 1.293-.97 1.965-.706-.218-1.469-.317-2.246-.35.98-1.327 2.655-3.887 2.856-4.216.928-1.522 1.81-3.092 2.653-4.663.912-1.703 1.692-3.476 2.565-5.198.495-.976.994-1.961 1.543-2.908.19-.325.394-.65.624-.945.045-.059.102-.108.155-.163.061-.033.123-.07.158-.089.317-.182.429-.605.652-.873.356-.433.775-.484 1.311-.49 1.142-.011 2.288.034 3.429.065 1.677.047 3.351.113 5.026.201.506.028 1.011.055 1.518.087 2.435.145 4.869.334 7.297.567 2.148.206 4.296.54 6.446.701-2.911 6.918-6.139 13.71-9.794 20.266-.037.066-.064.133-.082.199zm-16.151 17.822c-.469.216-.925.484-1.35.789.071-.475.088-.976.069-1.479.35.375.798.591 1.281.69zm20.043-11.9c-.034.004-.065.022-.081.055-.649 1.34-.377 2.837.683 3.888.556.548 1.767 1.167 1.727 2.067-.033.728-.825 1.338-1.163 1.939-.315.56-.433 1.174-.18 1.781.322.777 1.224 1.086 1.533 1.85.392.968-.244 2.137-.69 2.98-.415.781-.951 1.561-1.307 2.387-2.385 1.235-4.519 3.13-6.354 5.053-2.009 2.104-3.733 4.579-6.924 4.517-.318-.006-.561.162-.706.395-.888.041-1.778.059-2.666.063-1.561.007-3.123-.008-4.682-.057-.109-.378-.029-.89-.035-1.209-.019-1.028-.029-2.053-.072-3.081-.012-.285-.024-.573-.036-.859.562 1.016 1.657 1.478 2.906 1.407 2.007-.117 4.026-.446 6.013-.741 1.047-.155 2.092-.331 3.134-.519.857-.153 2.066-.113 2.665-.8.141-.161.148-.454-.073-.562-.592-.292-.966-.129-1.618-.004-.794.155-1.59.301-2.388.439-1.532.266-3.068.512-4.607.729-.877.124-1.755.245-2.633.341-.767.082-1.632.194-2.25-.384-1.246-1.166-.548-3.121.24-4.299.016-.023.016-.045.01-.065.744-.174 1.485-.377 2.225-.52 1.422-.274 2.854-.505 4.288-.71 2.946-.421 5.912-.699 8.873-.979.734-.071.742-1.225 0-1.156-4.255.389-8.531.759-12.729 1.579-1.053.203-2.097.434-3.136.694-.491.122-1.017.312-1.532.318-.031 0-.063 0-.094-.003-1.007-.031-1.154-.894-.6-1.612.068-.088.139-.176.211-.26.978-1.167 2.197-1.946 3.453-2.752 1.406-.192 2.809-.618 4.186-.931 3.4-.775 6.8-1.55 10.202-2.323.667-.153.384-1.178-.283-1.028-2.582.586-5.165 1.171-7.747 1.756l-3.78.857c-.755.17-1.698.513-2.586.636-.438.06-.863.068-1.246-.022-1.238-.293-1.301-1.841-.767-2.761.599-1.033 1.729-1.679 2.733-2.264 1.739-1.016 3.59-1.746 5.397-2.587.321-.071.642-.141.963-.212 1.866-.411 3.999-.612 5.755-1.365.527-.224.239-1.053-.281-1.042-1.364.03-2.79.515-4.122.803-1.442.313-2.886.624-4.328.935-.144.031-1.001.305-1.13.245-.083-.039-.112-.325-.139-.513-.089-.618-.153-1.268-.057-1.888.211-1.392 1.371-2.045 2.545-2.58 2.614-1.188 5.48-1.931 8.332-2.229.657-.068 1.315-.111 1.976-.133.776-.023 1.416-.16 1.81.605.618 1.205.958 2.756 1.162 4.131zm-3.63 43.708c-.57-1.971-.415-4.074-.805-6.084-.201-1.037-.476-2.065-.776-3.078-.242-.817-.646-1.687-.692-2.54-.003-.057.064-.09.11-.064.804.461 1.421 1.456 1.879 2.237.549.934.968 1.912 1.305 2.941.674 2.05 1.227 4.522.358 6.588-.258.614-1.166.738-1.379 0zm-17.6-26.097c.481-.047.962-.139 1.443-.247-.538.525-1.034 1.157-1.31 1.857-.043-.538-.098-1.074-.17-1.608.011 0 .025 0 .037-.002zm-4.625 41.012c-.849-.593-1.467-1.421-2.187-2.152-.708-.719.399-1.826 1.107-1.107.614.624 1.147 1.402 1.869 1.907.348.242.509.681.281 1.071-.201.344-.724.523-1.07.281zm-4.733-22.769c1.549-.67 3.073-1.4 4.694-1.882.969-.289 1.379 1.222.416 1.509-1.493.445-2.894 1.108-4.32 1.725-.916.396-1.712-.953-.79-1.352zm-16.361-.469c-.379-.935 1.136-1.338 1.509-.416.43 1.061.923 2.095 1.353 3.156.378.935-1.136 1.338-1.51.416-.429-1.061-.922-2.094-1.352-3.156zm-16.148 18.673c-.252.337-.673.519-1.071.281-.333-.199-.536-.73-.28-1.071.745-.994 1.501-1.977 2.375-2.864.709-.718 1.815.39 1.107 1.108-.781.791-1.465 1.658-2.131 2.546zm-2.309-104.773c.718.491 1.348 1.087 1.961 1.701.714.713-.393 1.82-1.107 1.106-.517-.517-1.038-1.041-1.644-1.455-.35-.239-.507-.684-.281-1.071.203-.347.722-.519 1.071-.281zm23.493 25.193c-.406.814-.771 1.611-.794 2.536-.025 1.007-1.59 1.008-1.565 0 .03-1.21.476-2.259 1.008-3.326.45-.903 1.8-.109 1.351.79zm8.62-20.233c.842-.561 1.624.795.79 1.352-.676.45-1.352.901-2.028 1.352-.841.561-1.624-.796-.79-1.352.676-.451 1.352-.901 2.028-1.352zm-37.388 35.376c-.143.995-1.651.569-1.509-.416.22-1.523.489-3.026.902-4.509.27-.971 1.779-.556 1.509.416-.413 1.484-.682 2.986-.902 4.509zm-5.487 17.934c-1.007-.022-1.007-1.587 0-1.566.912.019 1.808.259 2.687.479.978.244.561 1.754-.416 1.509-.743-.185-1.5-.406-2.271-.422zm-2.025 36.125c-.347.168-.702.32-1.0514.48-.7006.32-1.4007.641-2.1007.963-1.4582.669-2.9157 1.341-4.3718 2.015-2.9149 1.35-5.8523 2.652-8.7742 3.987-2.9796 1.362-5.9515 2.741-8.9196 4.128-1.3984.653-2.8073 1.282-4.2135 1.918-1.2023.544-2.6885 1.494-4.0085 1.584-.0678.005-.0905-.081-.0518-.125.4987-.568 1.2941-.898 1.9495-1.266.6694-.377 1.3514-.732 2.0302-1.091 1.4152-.75 2.8322-1.494 4.2611-2.218 2.8581-1.447 5.7218-2.883 8.586-4.318 2.9212-1.463 5.8386-2.936 8.7854-4.347 1.3874-.665 2.7762-1.327 4.1657-1.988.7528-.357 1.506-.714 2.2592-1.071.3253-.154.6474-.32.9804-.458.441-.183.777-.146 1.233-.258.744-.184 1.065.762.495 1.174-.47.339-.717.629-1.254.891zm-10.4485 16.053c-.1606-.391.1756-.865.5466-.963.4442-.117.8005.153.9627.547.429 1.044 1.0401 2.002 1.8268 2.811.7031.722-.403 1.83-1.1067 1.107-.9858-1.014-1.694-2.2-2.2294-3.502zm-7.6866-25.129c-.7134-.714.3935-1.821 1.1067-1.107l2.0283 2.028c.7135.714-.3936 1.821-1.1067 1.107zm-20.8092-3.308c-1.4582.427-3.1591.821-4.1533 2.065-.0485.061-.1301-.017-.1009-.078 1.2728-2.639 4.9228-3.565 7.45-4.49 1.7875-.654 3.6215-1.196 5.471-1.681-.1849-2.11.325-4.373.5022-6.473.1892-2.242.3431-4.49.4222-6.739.0808-2.295.1003-4.605.0248-6.9-.0751-2.287-.3719-4.545-.5018-6.825-.0125-.22.2943-.23.3604-.048.768 2.115 1.0961 4.457 1.3461 6.687.2575 2.297.343 4.588.3101 6.899-.0341 2.375-.1722 4.745-.3617 7.114-.0898 1.122-.1941 2.243-.2925 3.365-.0751.856-.1099 1.705-.2845 2.534 1.1155-.274 2.2336-.533 3.3481-.785 3.5538-.802 7.1225-1.547 10.6615-2.414 1.7372-.426 3.4495-.936 5.1789-1.389 1.6284-.426 3.3472-.943 5.0191-1.133.5967-.068.6726.748.2776 1.025-1.3589.954-3.1635 1.619-4.7331 2.153-1.5752.536-3.2126.922-4.8272 1.319-3.367.828-6.7659 1.506-10.1597 2.211-3.3891.705-6.7846 1.404-10.1356 2.274-1.6138.419-3.222.839-4.8217 1.309zm-7.9909-41.884c-.8714.512-1.658-.841-.7898-1.351 1.136-.667 2.3468-1.169 3.5673-1.657.9367-.375 1.3397 1.139.4161 1.509-1.0969.44-2.1728.9-3.1936 1.499zm-3.1552 58.164c-.8737.507-1.6609-.847-.7897-1.352 1.2234-.709 2.5633-1.183 3.8312-1.803.9021-.442 1.6944.909.7898 1.352-1.2677.62-2.6078 1.093-3.8313 1.803zm-1.4191-33.016c.8448.802 1.9722 1.18 3.0352 1.602.9269.367.5204 1.881-.4161 1.509-1.3244-.525-2.6735-1.005-3.7258-2.005-.732-.695.3766-1.8 1.1067-1.106zm9.3455-44.839c.9287.364.5219 1.878-.4161 1.51-1.0404-.408-2.1148-.719-3.1551-1.127-.9285-.365-.522-1.878.4161-1.51 1.0403.408 2.1147.719 3.1551 1.127zm16.4864-17.81c.9868-.166 1.407 1.343.4161 1.51-1.2293.208-2.4399.451-3.6059.902-.9415.364-1.3455-1.15-.4161-1.51 1.1662-.451 2.3767-.694 3.6059-.902zm5.4473 43.363c-.9048-.445-.1109-1.795.7898-1.352.9492.467 1.9326.828 2.9683 1.048.9862.211.5661 1.72-.4161 1.51-1.1656-.248-2.2746-.681-3.342-1.206zm5.1449-24.426c.9743-.267 1.3863 1.244.4161 1.51-1.7069.468-3.4642.711-5.1836 1.127-.9799.237-1.3945-1.273-.4161-1.509 1.7194-.417 3.4769-.66 5.1836-1.128zm21.8254-7.665c.991.184.569 1.692-.416 1.51-1.048-.194-2.11-.197-3.172-.198-1.009 0-1.007-1.566 0-1.565 1.207 0 2.399.033 3.588.253zm71.183 8.179c-2.557-.244-5.118-.44-7.683-.587-.119-.006-.237-.013-.356-.019-.014-.028-.031-.053-.049-.081-.837-1.229-1.453-2.457-1.987-3.847-.511-1.323-1.006-2.687-1.792-3.881-.897-1.36-2.108-2.424-3.435-3.346-.806.541-1.553 1.175-2.236 1.847-.719.708-1.826-.399-1.107-1.107.608-.597 1.256-1.149 1.941-1.647-.791-.481-1.598-.933-2.386-1.383-2.952-1.684-5.975-3.242-9.06-4.667-1.434-.663-2.885-1.252-4.347-1.849-.786-.321-1.563-.734-2.349-1.106.057-.556-.11-1.178-.536-1.544-.315-.268-.56-.368-.935-.558-.084-.029-.135-.047-.159-.057.018.004.069.02.153.047.199.093.215.065.047-.08-.01-.317-.634-.986-.777-1.313-.497-1.121-.651-2.307-1.385-3.329-1.011-1.407-2.709-1.939-4.292-1.462-.164-1.692-.207-3.459-.845-4.97-.018-.041-.075-.059-.1-.014-.665 1.133-.722 2.395-.773 3.703-.049 1.227-.002 2.481.159 3.7-.102.079-.206.153-.313.225-.505.333-1.049.589-1.62.779-1.088.36-2.228.517-3.369.572-2.944.14-5.978-.157-8.874-.662-2.928-.511-7.418-1.278-10.024-2.743-1.72-.967-3.306-2.147-4.914-3.29.583-1.879.732-3.898.145-5.485-.071-.19-.368-.225-.425 0-.368 1.514-.475 3.037-.964 4.534-.008.021-.016.045-.024.066-.152-.103-.305-.205-.458-.307-.352-.233-.831-.058-1.042.274-3.379 5.325-8.7293 5.63-14.3478 6.581-6.1489 1.041-12.3286 2.165-18.2406 4.202-5.6537 1.949-11.057 4.787-15.3374 9.025-.969.96-1.8752 1.983-2.7305 3.05.8276.104 1.6482.267 2.4583.522.9592.301.547 1.812-.4161 1.509-1.0411-.327-2.0938-.489-3.1573-.57-2.9084 3.98-5.1762 8.493-7.1372 12.935-3.7613 8.517-6.2097 17.587-7.3363 26.822.6186-.371 1.2483-.724 1.8937-1.053.8968-.456 1.6877.895.79 1.352-.997.507-1.9654 1.066-2.9036 1.672-.4098 4.043-.5687 8.111-.4724 12.172.2288 9.683 1.5357 19.65 4.4916 28.889 1.4497 4.534 3.3708 9.031 6.2328 12.863 1.2951 1.736 2.7663 3.301 4.4995 4.606.8393.634 1.7275 1.2 2.6645 1.677 1.2071.619 2.7799.822 3.8207 1.697.3424.288.6065.667.806 1.096-.1154.814-.1291 1.63.0939 2.444.0704.255.2621.462.4989.562.0039.07.0039.139.0039.205 0 .032.0469.04.0528.008.0098-.06.0196-.121.0293-.184.0763.026.1565.038.2387.038 2.9716.011 5.947-.062 8.9225-.163-.23-.705-.4793-1.404-.7185-2.109-.325-.958 1.1871-1.365 1.5091-.416.2799.824.5726 1.641.833 2.469 3.1882-.119 6.3754-.261 9.5569-.366 6.7669-.226 13.5318-.3 20.3004-.443 10.5112-.223 21.0992-.679 31.6272-.233.364-.773.771-1.528 1.158-2.29.456-.9 1.805-.107 1.351.79-.268.53-.547 1.053-.811 1.582 2.132.11 4.262.257 6.388.457 3.627.34 7.219.945 10.842 1.32 3.683.384 7.287.316 10.942-.293.657-.11 1.044-.507 1.205-1 .005-.002.009-.006.013-.012.188-.219.364-.401.546-.56.217-.14.452-.26.728-.366.514-.195 1.05-.315 1.594-.395.599-.09 1.205-.098 1.804-.172.505-.065.998-.161 1.491-.278.886-.211 1.727-.487 2.564-.853.73-.319 1.389-.777 2.012-1.276 1.287-.941 2.402-2.143 3.376-3.392.567-.73 1.101-1.487 1.587-2.275.845-1.366 1.565-2.785 2.292-4.216.265-.424.506-.858.726-1.301-1.422-.419-2.858-.761-4.366-.785-1.008-.016-1.008-1.582 0-1.566 1.729.028 3.365.432 4.99.913.079-.21.155-.422.225-.637.194-.447.354-.908.487-1.373.078-.212.157-.423.235-.634.176-.732.352-1.466.53-2.2.354-1.174.634-2.366.84-3.573.172-.795.305-1.595.395-2.405.274-1.963.497-3.922.512-5.907-.023-1.223-.101-2.444-.234-3.659-.057-.826-.153-1.648-.282-2.464-.168-1.213-.335-2.414-.614-3.612-.21-.81-.419-1.621-.628-2.431-.523-1.688-1.139-3.344-1.849-4.963-.039-.101-.237-.325-.356-.326-.09-.002-.216.08-.175.19.005.009.008.021.012.031-.041-.092-.08-.186-.121-.278-.035-.086-.172-.258-.278-.256-.006 0-.012 0-.019.001.027-.019.053-.045.078-.074.702-.831 1.158-1.926 1.661-2.888.417-.795.81-1.633.923-2.531.1-.788-.035-1.565-.53-2.203-.563-.726-1.624-1.067-1.035-2.116.669-1.193 1.653-2.229.673-3.585-.499-.691-1.289-1.07-1.876-1.671-.675-.695-.996-1.624-.978-2.573.041.023.096.011.115-.047.568-1.715.157-3.597-.424-5.267-.317-.905-.988-1.154-1.769-1.199 3.381-6.605 6.544-13.315 9.363-20.18.094-.225.186-.45.278-.675.137-.337-.153-.785-.487-.86-2.438-.534-4.977-.704-7.459-.939z" fill="#33325e"/><path d="m150.538 100.927c-.465-6.0165.255-12.3225-2.064-18.0411-4.043-9.4883-15.381-12.6519-24.171-16.2642-3.521-1.0408-15.37-1.1863-19.493-2.5639-9.332-3.1178-11.5615-6.8325-18.9764-.8962-1.2516 1.0141-2.0347 2.1163-2.606 3.6221l.0235.0065c-.1631.6278.0118 1.2542.3793 1.7327-3.215 3.2872-4.5603 8.2156-2.9107 12.5916 5.3831 11.3872 5.13 17.5444 3.3955 29.7865-2.265 11.428 2.9108 15.603 11.4826 21.821-.349.677-.4214 1.577.0336 2.174 9.9116 13.934 28.6016 20.586 44.6146 13.514 6.499-2.894 9.401-9.818 11.057-16.066 1.929-6.996 2.522-14.368.952-21.494-.634-3.296-1.459-6.568-1.717-9.923z" fill="#fff"/><path d="m93.363 34.2696c1.2032-.1808 2.1118.566 2.544 1.6184l.0227.0567c.1389.3581.2934.7065.4597 1.0489 3.0108-1.4775 7.3066-1.0978 9.2126 1.8944 1.359 2.137.53 4.6732.017 6.9393l-.336 1.4932c.65.414 1.141 1.1555 1.118 1.9232l-.003.0591-.137 2.0822c.434-.4403.831-.9197 1.185-1.4305.245-.4481.509-.8884.793-1.3151 1.669-2.5107 5.415-.3287 4.038 2.3601-.265.5186-.562 1.0098-.881 1.4834-.36.6986-.655 1.4168-.882 2.1546.651.2837 1.152.9139 1.205 1.8649.123 2.2212-1.043 4.0744-2.897 5.2388-.546.3425-1.109.409-1.62.2818-.09.1213-.18.2427-.266.3659.739.6008 1.406 1.2858 1.98 2.0451 1.725-.2584 3.46-.3797 5.196-.3836 2.12-1.0391 4.66-1.0176 6.939-.6282 1.467.2505 2.875.7378 4.319 1.0881 1.522.3679 3.068.3816 4.607.6321 1.941.315 3.643 1.2113 4.713 2.6418 1.176.0353 2.412.5167 3.437 1.1703 2.387 1.5225 4.76 3.0665 7.141 4.5988.913.5883 1.255 1.5274 1.087 2.5749l-.011.067-.08.4345.188.2673c.728 1.0293 1.521 2.1074 1.993 3.2434.872 1.2583 1.661 2.5773 2.359 3.9374.941 1.8278 1.718 3.7652 2.244 5.7534.131.503.262 1.0098.348 1.5225.123.7241-.066 1.2857-.17 1.9805-.129.8806-.176 1.773-.313 2.6555-.092.5852-.589.8728-1.109.8885.195 1.4892.336 2.9882.471 4.4758.19 2.125.319 4.256.431 6.387.575.836 1.751 1.497 2.6 1.726 1.175.315 2.408-.027 3.519-.428.698-.253 1.272.626.931 1.213-1.07 1.843-3.359 1.836-5.092 1.02-.734-.345-1.377-.844-1.855-1.494.03.619.061 1.237.092 1.858l.029.561c.353 6.562 1.114 13.35-.119 19.848-2.134 11.254-11.445 19.823-22.818 20.489-5.968.349-10.938-1.414-13.41-2.398-2.471-.984-1.511-2.99.205-2.416 2.955.987 8.385 2.459 13.244 1.824 11.452-1.498 21.163-7.224 20.166-31.885-.142-3.497-.577-6.996-.671-10.493-.09-3.419-.057-6.84-.208-10.2565l-.05-1.1658c-.059-1.3622-.122-2.7307-.224-4.0945-.123-.5284-.225-1.0646-.375-1.5831-.409-1.411-.943-2.7828-1.606-4.092-.147.1115-.311.1918-.489.2231-1.352.2426-2.62.1741-3.886-.3895-.59-.2602-1.111-.6066-1.596-1.0352-.231-.2016-.385-.3972-.507-.6008-.612.0098-1.224-.1741-1.608-.6145-.437-.5018-.51-1.0202-.339-1.5l.018-.0479-.043-.0157c-.516 1.3366-1.545 2.5128-2.674 3.3073-1.784 1.2603-4.016 1.6243-6.156 1.6575-2.364.0352-4.856-.3287-7.188-.7006-.616-.0978-1.228-.2094-1.829-.36-.024.0234-.047.0508-.072.0743-2.002 1.9159-4.817 2.409-7.356 1.3151-1.467-.6321-2.698-1.6497-3.786-2.8161-.015.6106-.047 1.2212-.099 1.8259l-.022.2401c-.109 1.1262-.317 2.3209-1.168 3.1336-1.375 1.3171-3.371.7887-4.957-.0684.002.0411.002.0841.002.1272.428 1.4559.859 2.9139 1.289 4.3718l.093.3105c.313 1.0353.656 2.0718.75 3.1552.18 2.0705-1.197 4.115-3.498 3.421-1.206-.363-2.1732-1.3783-3.1008-2.1913l-.5845-.5056c1.5122 4.9449 2.5603 10.0669 2.6583 15.2269.006.28-.234.491-.501.501-.6216.026-1.2907-.098-1.9167-.346-.0352-.002-.0704-.004-.1076-.01-1.0681-.155-2.06-.54-2.9344-1.11.2015.64.2914 1.327.2386 2.045-.0137.175-.2856.235-.3247.043-.5047-2.483-3.4099-4.36-5.9139-3.884-2.688.511-4.6678 2.824-5.153 5.456-.5203 2.828.4754 6.098 2.3202 8.28.8491 1.006 1.9661 1.845 3.2925 2.056.6064.096 1.2364.063 1.8252-.109.2504-.075.4852-.178.7239-.276.3482-.141.7551-.163 1.0838-.311.7453-.335 1.4946.352 1.117 1.117-.3287.667-.6241 1.118-1.1699 1.462.4422.54.8432 1.292.9919 1.493.759 1.026 1.5298 1.994 2.3945 2.932.8803.951 1.8409 1.82 2.8562 2.624l.4264.337c.978.776 1.83 1.495 2.52 2.608.544.879-.161 2.071-1.18 2.057-3.1886-.045-5.5068-2.847-7.158-5.296-.2347-.35-.4558-.72-.6612-1.099-.0743.119-.1565.23-.2485.332l.182.49c.5399 1.44-1.7861 2.381-2.4611 1.037-.491-.975-1.0603-1.902-1.6941-2.779-.3737-.053-.7395-.28-.943-.574-.5145-.745-1.0916-1.499-1.5787-2.293-.27-.256-.5478-.503-.8314-.744-.0822.073-.1663.145-.2465.221-.3561.813-.7962 1.554-1.342 2.253l-.1171.149c-1.0456 1.318-2.4076 2.667-4.0929 2.99-.5145.098-1.0095-.542-.5537-.951 1.1797-1.061 2.5745-1.783 3.6623-2.967.5358-.583 1.0279-1.226 1.451-1.899l.0964-.156c.0704-.115.1428-.231.2171-.348-.491-.335-.982-.671-1.4731-1.008-1.3517 1.155-3.112 1.684-4.6071 2.641l-.1486.097c-1.3519.904-2.776-1.096-1.6922-2.194 1.1947-1.206 2.192-2.643 3.2504-3.984-.4977-.917-.7333-2.001-.8215-3.097-.0348-.31-.062-.62-.0892-.931-.7591.012-1.522-.248-2.1676-.696l-.2445-.175c-.7845.251-1.6081.372-2.3965.351-1.8546-.055-2.6136-2.174-1.4535-3.515 1.1835-1.37 3.2553-1.669 4.8966-1.004.0528-.027.1076-.057.1604-.086-.0782-.36-.0608-.687.0282-.974l-.0258-.174c-.361-.554-.5983-1.187-.6883-1.855-.0712-.53-.0567-1.054.0658-1.577.0406-.174.1254-.354.1901-.536-.1334-.337-.2119-.685-.2361-1.035-.0374-.045-.0745-.09-.1098-.14-.8144-1.143-.6498-2.522.1252-3.447.0036-.059.009-.118.0171-.177-.0454-.102-.0871-.205-.125-.309-.7573-.764-1.3133-1.684-1.2096-2.823.0608-.671.3363-1.274.7531-1.726-.0739-.218-.0809-.472.0087-.6833-.6654-1.7703-.5813-3.9024-.1024-5.8822-.1056-.3014-.1604-.6282-.1486-.9746.0547-1.4696 1.3263-2.8199 2.8327-2.8023.1813.0016.3512.0252.5143.0599l.0022-.0351c.0577-.4411.179-.8487.356-1.2144-.0871-.0315-.1676-.0768-.2383-.1368-.9652.515-1.9866.9088-3.0575 1.1771-.7874.1972-1.594-.6981-1.1045-1.4374.2271-.3431.4777-.6511.7477-.9325-.3838.0022-.7735.0282-1.1677.0789-.7082.092-1.4986-.3914-1.9583-1.045-.5712.5557-1.1444 1.1096-1.7176 1.6634-1.4516 1.407-3.6446.3718-3.8735-1.4834-.4324-.1155-.8354-.3112-1.1895-.591-2.2888.9941-4.7518 1.5401-7.2696 1.6438-1.8076.0744-2.864-2.0313-2.0189-3.5185.5673-.9981 1.2716-1.8944 2.0835-2.6732-1.2599.3855-2.5608.6634-3.8892.8415-.7179.0958-1.7333-.4991-2.0208-1.1586-1.0995-2.5362-1.0056-5.18.2601-7.6477.0489-.0979.1037-.1918.1565-.2857.1311-.3268.2739-.6497.4285-.9668-1.5572-1.6242-1.6922-4.0391-.853-6.0606-.3365-.546-.4656-1.2035-.2367-1.7985.6515-1.7123 1.5905-3.2935 2.776-4.6516-.1135-.2192-.2132-.4521-.2973-.7026-.6671-2.0254.1056-4.4696 1.6648-5.8806.9801-.8884 2.1069-1.4207 3.31-1.7612.5067-.8963 1.1582-1.7045 1.9172-2.3856.0294-.0645.0587-.1291.092-.1937 1.1816-2.227 3.3335-3.4207 5.64-3.6967.09-.8708.6769-1.7025 1.5298-1.9726.2348-.7534.585-1.4736 1.0662-2.1272.7571-1.0293 2.015-1.5147 3.2005-.8395.6495.3699 1.2716.7945 1.8546 1.2642.2619-.1229.5587-.2023.8937-.2277l.0845-.0052 1.9289-.0978c.808-.3582 1.614-.7339 2.4219-1.0999.4852-.4011 1.0271-.7358 1.6179-.9843.669-.2798 1.3537-.4384 2.0404-.4912.5576-.182 1.119-.3425 1.6903-.4677 1.342-.2935 2.7466-.4579 4.1395-.4442.0285-.3607.0426-.7256.0399-1.0949l-.0027-.185c-.0313-1.1839.9136-2.1291 2.0267-2.2974zm-1.3518 94.7264c-.1917.041-.3854.074-.5791.097.0587.145.1174.29.1741.435.1565.088.315.172.4735.25-.047-.266-.0744-.534-.0685-.782zm-10.0509-2.988-.1301.24c-.021.039-.0418.077-.0622.116.2758-.022.5536-.016.8275.015l-.0008-.029c-.0352-.012-.0704-.023-.104-.039-.189-.091-.3647-.193-.5304-.303zm5.4321-10.93c1.7307.101 3.1971.366 4.7712 1.124l.1352.066c1.3909.69 3.6915 1.966 3.4979 3.796-.0548.521-.4324 1.069-1.0271 1.028-1.6296-.112-2.5608-1.756-3.6642-2.781-1.1131-1.034-2.4806-2.096-3.8285-2.807-.1905-.1-.1154-.416.0919-.426zm-7.8487-24.1078c-.4148.0137-.2759.4168-.0626.0802.0176-.0274.0391-.0548.0626-.0802zm22.3873-26.9124c-3.928.1033-7.8811 2.4233-10.8236 4.7683-2.5598 2.0401-4.7703 4.4667-6.7276 7.0822-.5035 1.3025-.9359 2.6322-1.3011 3.9718-.2406.8845-.3913 1.7788-.5928 2.6712l-.0626.2736c-.1582.2959-.2758.6143-.3615.9432.3566.3578.8193.6139 1.3287.7355.1642.0391.3005.1238.4083.2362.4101-.6846.7685-1.4071.977-2.173l.0076-.0355c.7882-1.2913 1.6443-2.5426 2.562-3.751 2.5315-3.3366 5.3192-6.3777 8.6704-8.9081 2.5412-1.9178 5.3822-3.4207 8.4022-4.3972-.739-.5967-1.579-1.0687-2.487-1.4172z" fill="#33325e"/><path d="m137.341 136.622c-1.441.418-2.988.455-4.457.024-1.332-.391-2.7-1.252-3.681-2.391-.871-1.012-1.435-2.242-1.413-3.554.003-.15.056-.275.139-.372.088-.105.212-.177.345-.208.137-.032.281-.021.404.035.111.051.206.137.266.262.151.198.301.393.452.583 1.211 1.497 2.385 2.615 4.207 3.017.988.217 1.976.121 2.882-.211.97-.356 1.846-.981 2.533-1.781.311-.362.677-.509 1.035-.512.407-.003.808.186 1.11.488.298.296.497.699.515 1.121.016.37-.105.757-.426 1.101-1.057 1.136-2.428 1.968-3.911 2.398zm-.044-18.746c1.477.898 3.728 2.993 2.139 5.22-1.871 1.963-4.564-.288-5.891-1.306-1.231-.789-2.614 1.24-1.472 2.162 9.591 7.102 13.483-5.841 5.971-7.132-.827-.142-1.134.778-.747 1.056zm-13.819-3.952c-.475-.304-1.034-.408-1.653-.127-.483.22-1.332.954-1.922 1.918-.404.66-.691 1.434-.631 2.24.014.187-.055.325-.164.427-.087.081-.211.14-.357.159-.124.016-.263.001-.376-.034-.215-.067-.329-.206-.372-.32-.413-1.098-.235-2.324.228-3.43.626-1.492 1.761-2.742 2.505-3.145 1.273-.69 2.775-.721 4.05-.019 1.085.598 1.764 1.564 2.439 2.549.143.209.286.416.433.621.295.408.324.814.21 1.162-.126.385-.449.71-.853.88-.372.157-.805.18-1.188.018-.324-.136-.621-.403-.809-.854-.316-.76-.843-1.599-1.54-2.045zm24.114 1.691c-.325.17-.579.221-.94.113-.2-.06-.397-.175-.551-.329-.153-.153-.263-.344-.306-.555-.106-.521-.391-1.009-.797-1.326-.347-.272-.785-.416-1.271-.335-.524.088-1.024.424-1.368.821-.115.132-.205.283-.296.433-.169.28-.334.54-.568.746-.089.078-.222.132-.352.132-.052 0-.106-.008-.156-.024-.522-.524-.623-.922-.606-1.316.018-.414.181-.832.444-1.223.618-.916 1.791-1.667 2.582-1.837 1.084-.233 2.16.046 3.023.652.888.623 1.547 1.59 1.752 2.681.049.262.028.546-.072.791-.098.24-.268.446-.518.576zm-21.724-11.46c-.65.634-1.42.732-2.199.82-.433.049-.778.088-1.118.165-.935.211-1.858.529-2.701.986-.881.479-1.841 1.056-2.531 1.795-.165.176-.319.36-.474.545-.142.169-.278.331-.421.488-.165.18-.322.368-.477.556-.097.159-.116.198-.135.238-.029.061-.063.13-.102.203-.053.1-.115.21-.18.31-.109.182-.167.232-.217.254-.083.038-.162.056-.239.046-.072-.009-.14-.044-.207-.1-.334-.283-.432-.746-.422-1.238.015-.746.29-1.572.544-2.08.59-1.18 1.408-2.406 2.391-3.287 1.122-1.005 2.35-1.766 3.76-2.291.876-.326 1.891-.625 2.846-.587.687.027 1.343.231 1.884.742.333.313.493.758.493 1.204 0 .454-.166.911-.495 1.231zm23.047 5.805c-.041.068-.099.115-.162.143-.067.029-.142.038-.213.026s-.139-.044-.193-.094c-.051-.047-.09-.11-.108-.187-.432-1.897-1.27-3.309-3.06-4.219-.881-.448-1.893-.732-2.851-.959-.279-.066-.573-.109-.87-.152-.928-.136-1.864-.291-2.47-1.042-.364-.453-.517-1.031-.431-1.56.082-.499.373-.955.902-1.229 1.317-.681 2.953-.013 4.284.556.098.043.195.084.29.124 1.3.549 2.487 1.274 3.462 2.311.774.823 1.491 2.038 1.779 3.289.24 1.041.184 2.103-.359 2.993z" fill="#33325e"/></g><path d="m259.792 4.35605-4.527 62.95895-50.738-37.5495z" stroke="#33325e" stroke-width="5"/><path clip-rule="evenodd" d="m335.287 186.829c-6.257.304-16 2.944-16.487 4.631-.76 2.634.874 12.51-1.86 17.829-1.165 2.268-5.59 2.065-7.305 2.803-5.737 2.471-22.72 7.157-26.222 13.058-1.403 2.364-10.025 31.697-14.606 46.662-.516 1.688-1.1 3.248-1.734 4.693l-.233-1.123c-1.868-9.045-2.802-14.52-2.802-16.426 0-2.979 2.415-15.546 0-18.741-2.39-3.164-8.151-5.751-10.743-5.803h-.077c-1.702 0-3.179-.524-4.43-1.571l-1.835-.908c-9.334-4.609-14.788-7.137-16.361-7.584-2.509-.714-6.781.807-4.645 3.09 1.424 1.523 5.001 4.216 10.733 8.079l2.161 1.69-.261.134c-2.793 1.447-4.435 2.665-4.927 3.653-.506 1.02-.263 2.225.729 3.617l-.15.145c-1.256 1.212-1.883 2.025-1.883 2.439v2.023c-1.249 1.8-1.562 3.301-.937 4.503.624 1.202 1.615 2.244 2.97 3.125 1 2.587 2.189 4.427 3.57 5.522 1.38 1.095 3.766 2.007 7.158 2.735l3.068 7.22 2.487 10.144 1.253 11.318-.364.259c-1.686 1.209-2.766 2.105-2.766 3.031 0 1.442 6.804 35.359 17.389 36.877 2.29.328 14.162-1.282 18.061-4.402l-.058.337c-.917 5.451-.723 8.282.582 8.492 16.042 2.588 61.603 3.388 136.681 2.399.447-39.21-1.573-65.323-6.059-78.34-11.474-33.29-24.125-44.661-28.551-45.634-3.876-.853-17.32-6.118-21.078-7.516-2.453-.912-2.978-3.647-5.774-3.647l-.226.002c-2.703.026-5.1.502-6.447-.866-3.535-3.59-2.547-8.56-4.013-13.318-.808-2.622-6.329-5.004-14.008-4.631z" fill="#fff" fill-rule="evenodd"/><path clip-rule="evenodd" d="m352.479 196.23c-.368-.716-1.343-.623-1.986-.298-1.929 1.388.089 4.078.623 5.772 1.373 3.285 3.758 6.496 7.05 8.031-.273 3.266-.582 6.524-.696 9.8-4.209 5.137-11.305 7.012-17.604 8.454-9.894 2.692-21.059-2.824-24.398-12.446 3.8-2.125 5.03-7.688 3.896-11.569-.099-.273-.528-.393-.681-.089-1.041 2.106-.902 4.675-2.085 6.756-11.355 1.07-26.01 5.286-33.45 14.322-3.296 4.521-4.602 10.4-6.226 15.64-3.465 10.801-6.225 21.822-9.623 32.634l-.4-2.046c-1.098-5.635-2.096-11.348-1.354-17.079l.013-.274c.242-4.561 1.693-13.035-1.902-16.114-3.251-2.445-7.961-4.409-12.041-3.283-7.26-3.179-13.527-8.532-21.259-10.617-2.38-.482-5.804.088-5.242 3.265 1.559 5.556 8.088 7.713 12.551 10.578-2.861.763-6.349 4.186-4.113 7.171.019.053.036.093.053.125-1.812.79-2.066 2.777-1.621 4.481.045.45.165.063-.104.471-2.045 1.898-1.141 7.189 1.94 7.367-.202 2.507 1.435 4.942 3.508 6.309 2.234 1.473 5.464 1.537 7.313 3.553 4.343 7.534 5.841 16.429 6.314 25.057-2.862 1.054-5.431 4.206-2.83 6.881.051.006.103.012.155.016 1.507 3.959 2.089 8.179 2.887 12.313 1.226 7.055 4.423 13.532 8.505 19.409 4.721 7.779 17.414 6.546 23.809 1.526-.025 1.317-.246 2.626.183 3.899.633 1.373 2.176.78 2.328-.573 3.381 1.871 4.177-4.304.419-3.324.289-4.464.457-8.935.593-13.406 4.254 1.355 4.438-5.591.086-4.202l.005-1.92c.032-14.723-.133-29.496-2.108-44.103-.183-1.093-.492-2.15-.672-3.236-.02-.112-.198-.081-.198.027-.306 20.45 1.052 40.944-.365 61.402-1.18.354-1.65 1.686-2.524 2.462-1.939 1.762-4.58 2.619-7.163 2.918-7.232.998-10.354-1.175-13.575-7.361 1.453.956 3.416-.731 2.53-2.243l-.027-.046c-.92-1.601-3.516-.641-3.188 1.152-3.237-5.102-4.932-10.855-6.184-16.692l-.169-.697c-.608-2.479-1.398-5.318-2.859-7.561 8.91-2.234 17.625-9.042 19.02-18.382 2.262 6.993 5.326 13.83 8.247 20.631.902 2.365 1.278 4.908 2.571 7.102.301.507 1.064.376 1.234-.159 1.163-5.116-2.361-9.982-4.191-14.588-1.494-2.602-5.782-14.488-8.441-14.517 2.987-12.885 6.972-25.675 10.768-38.4 3.669-17.182 11.148-20.495 26.99-25.905-2.858 14.328-15.904 28.198-8.962 43.227l.169.39c.71 1.657 1.3 3.327.804 5.145-.481 1.765-1.576 3.297-2.453 4.885-4.899 8.965-1.527 19.436.368 28.773 2.392 10.949 4.756 21.909 7.229 32.842.488 2.18.804 4.427 1.54 6.541.381 1.09 2.277.987 2.155-.285-.234-2.469-.939-4.876-1.455-7.3-3.079-15.695-7.246-31.205-9.896-46.969-1.704-11.669 5.005-13.462 4.755-21.002-.912-3.856-3.326-7.297-3.188-11.406-.536-12.579 8.775-22.957 9.925-35.19l2.03-.713c1.014-.357 2.028-.717 3.038-1.086-5.317 36.59-3.703 73.979-1.045 110.75.543 1.697.027 13.549 2.303 12.497.115.662.473 1.314 1.25 1.31 7.06.064 14.123.174 21.183.257 3.396-.308 8.063.967 10.952-.961 3.335-.936 3.718-9.823 4.61-12.991l.348-2.304c5.667-37.643 10.738-76.063 6.664-114.079 5.668.214 6.838 6.232 7.258 10.615 1.051 9.672 7.402 18.001 7.706 27.784.026 2.373-.429 4.673-1.393 6.852-2.559 5.339-6.983 11.512-3.676 17.475 3.911 4.642 3.572 5.863 2.137 11.6-4.037 18.965-10.742 37.197-17.12 55.482 1.385 7.107 9.721-19.277 10.505-21.266 3.69 1.825 5.706-4.233 1.473-4.665 2.719-8.953 5.22-17.973 7.303-27.093l.055-.257c.92-4.213 2.73-9.147-.326-12.885-7.88-7.84 5.206-16.605 3.555-26.103 1.426 1.04 3.583-.054 3.551-1.801.064-1.966-2.62-2.974-3.912-1.473-1.328-7.707-5.949-14.435-7.347-22.118l-.063-.361c-.474-2.716-.607-5.573-1.963-8.049 1.845 1.18 3.81 2.133 5.832 2.974-3.614 2.97 3.384 5.681 2.805 1.093 19.818 5.642 24.297 13.509 31.574 31.578-1.359-1.3-3.688.382-2.874 2.039.649 1.746 3.48 1.235 3.479-.625l.332.778c4.412 10.381 8.428 21.015 10.447 32.125-3.959-.55-2.951 5.675.636 3.92 1.439 9.881 1.462 19.901 1.286 29.862-3.339-1.723-3.44 4.132-.032 2.462-.125 8.162-.307 16.325-.445 24.487-.028 1.737 2.696 1.729 2.739 0 .318-12.542.897-25.106.622-37.652.259-21.774-6.103-42.761-15.581-62.267-8.387-22.459-19.972-25.013-41.286-31.543-1.967-2.874-6.171-5.592-9.6-3.787-1.919-3.048-2.894-6.659-4.313-9.906zm36.518 78.275c-.08-.276-.482-.207-.494.066-.179 3.523-.02 7.069.225 10.608.148 2.16.331 4.317.485 6.463.411 5.66.741 11.326.993 16.997-.088-.036-.178-.068-.273-.093-.434-.117-.868-.117-1.302 0-.387.106-.725.292-1.016.56l-.062.059c-.238.217-.408.475-.507.773-.141.265-.212.549-.212.852l.002.076c.002.435.111.839.335 1.215.217.362.509.649.876.865.382.218.793.325 1.235.327.047.005.095.009.142.011.329.013.636-.055.919-.201l.043-.012c.108 2.876.196 5.755.26 8.633.058 2.509.135 5.018.187 7.526l.024 1.255.047 2.774c.015 1.14.007 2.232.401 3.308l.048.124c.283.718.504 1.718 1.263 2.118.605.319 1.422.201 1.77-.421.292-.52.038-1.268-.393-1.619.008-.023.021-.044.032-.067.066-.191.167-.37.227-.563.19-.608.138-1.257.14-1.889 0-1.116-.038-2.232-.069-3.346-.066-2.371-.144-4.74-.238-7.11-.319-7.947-.92-15.895-1.609-23.821l-.233-2.675c-.312-3.557-.634-7.118-1.09-10.657-.021-.169-.043-.338-.067-.507.245-.121.473-.287.654-.473.723-.748 1.162-1.866 1.574-2.829l.094-.219c.447-1.027.859-2.067 1.072-3.17l.02-.102c.097-.47.289-1.302-.218-1.53-.264-.118-.431-.034-.517.226-.011.034-.002.072.017.102-.208.314-.535.608-.741.9l-.706.993-.349.499c-.442.64-.915 1.253-1.402 1.858-.384-2.655-.855-5.299-1.587-7.884zm-28.941 59.155c-.883-.68-2.32-.311-2.32.945 0 1.262 1.439 1.625 2.32.945l.043-.032.043-.034c.479-.369.495-1.328.036-1.728l-.036-.03c-.028-.024-.056-.045-.086-.066zm38.456-2.453-.076.001c-.399 0-.771.1-1.117.299-.15.112-.298.226-.449.34-.274.27-.463.592-.569.962l-.079.578c-.011.301.051.58.191.84.09.27.243.505.457.701.202.214.439.364.713.45.243.126.501.19.777.19l.076-.001c.402 0 .774-.1 1.119-.298.151-.112.299-.227.449-.341.273-.27.464-.592.569-.961.026-.193.052-.387.08-.58.01-.3-.054-.578-.191-.839-.09-.27-.243-.504-.458-.701-.202-.214-.438-.364-.713-.45-.242-.126-.502-.19-.779-.19zm-100.546-4.018-.563.074c-.539.12-.972.511-1.262.957-.155.239-.239.497-.252.774-.062.274-.049.551.039.828.065.271.191.507.378.708.064.1.14.19.225.271.177.289.443.479.718.674.232.146.483.224.754.237.178.046.359.046.539 0 .269-.013.52-.091.752-.237.137-.104.275-.209.41-.313.12-.137.232-.279.337-.427.071-.163.14-.323.208-.484.127-.387.065-.729-.004-1.116-.01-.065-.028-.124-.051-.188l-.047-.123c-.123-.321-.189-.43-.409-.71l-.083-.109c-.042-.055-.085-.109-.134-.157-.137-.139-.333-.256-.487-.376-.331-.188-.687-.281-1.068-.283zm72.925-1.354-.072.001c-.311.002-.604.078-.874.233l-.352.268c-.215.213-.363.463-.447.753-.02.151-.041.304-.063.454-.008.234.041.454.151.659.068.212.189.393.359.55.156.165.343.283.558.353.187.096.389.146.603.147l.065-.001c.314 0 .606-.079.876-.233l.353-.266c.214-.214.363-.465.446-.755.02-.152.041-.302.063-.454.008-.235-.041-.454-.151-.657-.071-.212-.189-.396-.358-.55-.157-.167-.344-.285-.559-.353-.187-.097-.385-.146-.598-.149zm14.175-.698c-.449-.005-.905.12-1.272.376-.356.249-.627.518-.801.921-.047.11-.094.218-.135.328-.185.484-.219.97.036 1.443.247.459.78.66 1.257.797.403.118.861.137 1.263-.004.199-.07.395-.144.575-.252.337-.205.52-.448.746-.748.176-.296.264-.617.264-.959 0-.345-.088-.664-.264-.962-.346-.581-.986-.936-1.669-.94zm22.767.407c-.567 0-1.065.258-1.407.693-.345.442-.472.992-.319 1.54.161.578.648 1.086 1.252 1.231.446.108.812.104 1.256.03.376-.063.664-.283.952-.512.328-.264.429-.745.376-1.134-.052-.389-.235-.643-.512-.873l-.002-.007.103.079c-.038-.034-.077-.07-.116-.106-.012-.021-.023-.044-.034-.068-.159-.266-.374-.475-.642-.632-.282-.16-.582-.241-.907-.241zm-132.221-6.401c-.312-.083-.625-.083-.937 0-.23.053-.429.156-.599.31-.172.111-.313.252-.419.427l-.034.059c-.245.411-.284.88-.178 1.336.13.564.659 1.078 1.23 1.211l.02.004.019.005c.232.072.466.082.698.029.234-.01.451-.078.651-.205.253-.16.466-.367.629-.617.129-.199.198-.412.209-.643.04-.152.04-.304 0-.456-.011-.23-.08-.444-.209-.642l-.275-.349-.028-.023c-.219-.216-.479-.364-.777-.446zm21.625-11.185c-2.816 0-2.812 4.299 0 4.299 2.815 0 2.811-4.299 0-4.299zm103.094-.543c-.297-.066-.593-.053-.887.038-.179.074-.355.148-.531.219l-.451.343c-.084.07-.124.146-.202.245l-.096.125c-.14.184-.143.223-.297.615-.103.376-.103.752 0 1.129.05.181.125.352.221.511.089.152.194.286.314.409l.06.06c.202.214.44.364.715.452.174.1.361.148.561.148.296.066.593.053.887-.038.178-.074.354-.148.531-.219l.451-.343.348-.444.111-.26.112-.262.079-.581c.011-.302-.051-.581-.191-.843-.053-.184-.148-.347-.285-.482-.099-.165-.232-.296-.4-.393-.137-.136-.303-.228-.49-.281-.174-.1-.36-.148-.56-.148zm-139.273-3.071c-.234-.008-.454.04-.655.146-.071.023-.14.052-.207.086-.26.15-.466.353-.618.607-.125.195-.194.404-.204.63-.047.204-.043.409.014.613l.018.061c.047.167.118.321.212.463.009.017.02.034.033.048.144.225.335.408.571.546.262.148.544.224.849.226.607 0 1.131-.323 1.452-.82.045-.07.07-.159.102-.231.029-.067.074-.154.098-.232.081-.3.081-.6 0-.9-.054-.22-.155-.412-.308-.575-.122-.184-.283-.33-.483-.436-.248-.142-.514-.218-.797-.23zm118.89-2.103c-.298-.08-.594-.086-.889-.018l-.074.018c-.236.055-.44.161-.616.317-.196.127-.353.294-.466.501-.164.277-.245.577-.247.898.002.321.083.622.247.898.161.269.378.48.65.639l.237.112c.197.122.408.188.636.198.152.04.305.04.455 0 .155 0 .298-.038.431-.114.147-.04.271-.112.379-.218.187-.118.332-.274.44-.471l.174-.404.06-.448-.06-.445-.095-.22c-.085-.303-.24-.565-.466-.787-.225-.22-.491-.372-.796-.456zm-106.519-3.565c-.313-.098-.625-.111-.936-.043-.21 0-.408.053-.591.159-.199.055-.371.152-.517.296-.256.162-.456.378-.604.646l-.236.552c-.142.357-.09.883-.004 1.243.07.295.208.554.412.773.103.171.241.307.415.408.199.178.428.305.688.38l.072.019.026.007c.004.002.008.002.013.002.002.002.006.002.008.002.103.025.208.04.318.044.311.068.623.056.936-.042.185-.076.372-.154.559-.232.159-.118.316-.239.475-.36.122-.156.244-.312.367-.467.172-.264.264-.551.277-.858.056-.205.056-.408 0-.613 0-.209-.054-.401-.159-.581-.094-.287-.256-.534-.485-.744-.159-.12-.316-.241-.475-.359-.187-.078-.374-.156-.559-.232zm136.992-7.567c-.324-.087-.648-.087-.973 0l-.435.18c-.215.114-.385.268-.514.465-.163.173-.272.378-.328.613-.127.321-.112.83-.011 1.158.114.372.29.668.562.947.454.46 1.15.594 1.766.454.17-.038.331-.112.477-.203.466-.283.78-.778.777-1.325 0-.059-.004-.118-.012-.177.03-.121.041-.246.036-.377l-.064-.477-.004-.013c-.087-.302-.241-.564-.467-.786-.208-.203-.451-.35-.729-.438l-.07-.021zm-162.077-47.458c.587-4.734 2.793-9.827 9.522-7.047l.499.184c1.665.62 3.606 1.435 4.619 2.868.698.987.462 2.9.558 4.052.439 3.745.204 7.484-.253 11.214-.59 8.741 1.277 17.798 4.996 25.742-3.722 5.925-8.702 11.452-15.497 13.922-.287-6.737-1.628-13.35-3.054-19.924l-.056-.287c-.571-2.964-.856-6.006-2.835-8.472-4.025-4.299-9.56-1.866-12.209-8.773.556-.277.249-1.223-.421-1.041-2.323.405-2.7-3.832-1.111-4.853 1.657-.994-.011-2.828.694-4.151.393-.571 1.242-.59 1.627-1.247 1.019-2.42-4.083-3.971 1.917-6.699 1.228-.429 2.6-.163 3.839-.168 1.822.168 3.269 1.431 4.936 1.828-1.815 4.622 2.763 9.073 6.894 5.381 2.248 2.091 4.763 6.857-.702 4.635-2.675-1.756-4.978-4.027-8.083-5.108l-.065-.02c-1.153-.372-6.197-2.783-5.947-.696 1.89 1.794 5.005 1.773 7.194 3.229 3.033 1.38 4.973 4.725 8.604 4.679.837 5.002-4.931 1.958-7.079.579l-.596-.318c-3.03-1.611-6.105-3.103-9.639-3.123-.975-.006-.971 1.474 0 1.486 4.605.029 8.353 2.861 12.211 4.967.38 2.92-3.966 1.641-5.615 1.211-1.729-.239-4.505-2.079-6.018-1.107-.592 1.496 2.012 1.384 2.919 1.838-4.14 1.957-.513 3.188.597.182l.325.109c2.772.917 9.493 2.803 8.694-1.817 1.014.442 2.251.706 3.372.461 2.796 4.069 7.255 2.494.773-.279 1.461-.668 1.949-3.249.546-4.21 5.102-.306 1.314-5.574-.798-7.329.2-.198.393-.4.573-.605 1.217.571 2.497.917 3.866 1.04 1.31.116 1.602-2.078.309-2.257-1.386-.193-2.662-.556-3.881-1.241-1.849-.786-2.48 2.59-4.331 2.709-1.009.197-1.692-.674-1.894-1.544zm42.953 43.557c-.446 0-.844.184-1.168.475-.324.292-.464.729-.483 1.148-.009.224.038.433.142.627.066.201.18.374.341.523.301.293.745.475 1.168.475.447 0 .844-.184 1.169-.475.324-.294.464-.73.483-1.15.009-.222-.039-.431-.142-.626-.059-.181-.158-.341-.294-.477l-.047-.045c-.301-.296-.745-.475-1.169-.475zm-13.537-10.024-.071.001c-.378.003-.729.095-1.055.281-.142.108-.284.214-.423.322-.26.257-.438.56-.537.909-.101.363-.101.729 0 1.092.034.21.113.412.238.588.185.302.43.545.739.725.32.184.666.274 1.038.276.371-.002.717-.092 1.037-.276.309-.18.554-.423.737-.725.126-.176.206-.378.24-.588.101-.363.101-.729 0-1.092-.091-.324-.252-.608-.482-.853l-.055-.056c-.189-.201-.412-.343-.672-.425-.228-.118-.473-.178-.734-.179zm103.313.113c-.159-.042-.316-.042-.475 0-.236.011-.457.081-.661.208-.121.092-.241.183-.361.274l-.105.124c-.224.269-.23.315-.402.724-.071.228-.082.456-.03.685 0 .154.041.298.118.431.043.146.116.272.226.378.077.129.18.232.311.309.168.15.365.253.593.306l.462.061c.06-.008.122-.017.182-.023.073-.002.143-.01.212-.023l.07-.015.063-.017c.084-.024.166-.056.246-.097.15-.042.281-.116.393-.226.193-.123.348-.288.46-.493l.03-.067c.04-.072.075-.146.101-.226.073-.127.109-.262.111-.408.043-.194.04-.387-.011-.579l-.019-.064-.165-.387c-.086-.131-.176-.264-.292-.372-.07-.061-.24-.192-.336-.257l-.059-.038c-.205-.127-.426-.197-.662-.208zm25.895-3.022c-.309-1.198-1.908-1.577-2.777-.721-.87.857-.486 2.429.732 2.733l.14.034c1.177.294 2.238-.752 1.939-1.91zm-147.425-9.775c.009-.118-.146-.16-.223-.091-1.035.913-1.695 2.008-2.951 2.716-1.264.71-2.565.653-3.882 1.112-.446.156-.449.744 0 .898 2.492.856 6.867-2.046 7.056-4.635zm117.071-.186c-.277-.084-.557-.097-.834-.036-.189 0-.365.047-.526.14-.178.048-.331.137-.462.264-.157.091-.281.215-.375.37-.185.198-.31.431-.374.697l-.073.548.073.547c.071.163.142.328.21.49l.192.256c.156.204.181.206.558.482.24.15.5.232.777.243.185.051.37.051.557 0 .186 0 .363-.046.526-.139.176-.049.331-.138.462-.265.227-.146.406-.338.537-.577.071-.162.141-.327.21-.49l.075-.547-.075-.548-.004-.017c-.099-.342-.275-.64-.528-.892l-.417-.317c-.163-.103-.333-.156-.509-.209zm-100.266.41c-.595-.161-1.248.008-1.684.438-.436.429-.608 1.069-.445 1.655.162.57.628 1.033 1.21 1.187.174.047.35.072.528.064.299-.002.578-.077.838-.224l.335-.256c.163-.148.277-.323.344-.526.105-.195.152-.404.144-.63l.002-.04c.006-.081-.005-.161-.031-.239 0-.083-.012-.163-.034-.241-.157-.571-.629-1.032-1.207-1.188zm128.264-5.723c-.192-.007-.37.031-.535.118-.174.055-.322.148-.447.283-.138.123-.232.271-.288.44-.088.163-.127.338-.12.526 0 .247.064.478.189.689.073.093.146.186.219.277.172.171.376.287.612.353l.138.046c.201.072.399.077.61.049.221-.029.425-.089.605-.224.177-.101.316-.239.419-.412l.118-.275c.026-.093.037-.232.043-.33 0-.014 0-.027.002-.042 0-.082-.025-.283-.047-.365-.047-.174-.144-.339-.253-.478-.095-.146-.224-.26-.383-.345l-.014-.01-.016-.011c-.049-.034-.101-.067-.152-.103-.215-.123-.449-.186-.7-.186zm-110.915-1.501c-.344 0-.664.087-.96.256-.011.004-.022.008-.03.013-.284.164-.509.387-.677.665-.172.29-.257.603-.257.937 0 .336.085.646.257.936.168.279.393.501.677.666.008.006.019.01.03.014.296.17.616.254.96.256.341-.002.661-.086.958-.256.58-.333.943-.957.943-1.616 0-.66-.363-1.283-.943-1.615-.297-.169-.617-.256-.958-.256zm89.198-2.444-.059-.001c-.228-.009-.44.038-.635.142-.204.065-.383.177-.533.336l-.314.257-.091.073c-.015.012-.03.025-.044.037-.211.209-.355.455-.436.738-.026.163-.047.323-.065.486-.047.423.207.856.486 1.156.15.159.329.271.535.338.197.102.412.148.64.14.466-.04.908-.138 1.243-.493.039-.042.076-.086.114-.131l.269-.304c.204-.203.346-.442.423-.717.021-.145.041-.289.06-.433.019-.433-.195-.839-.483-1.147-.266-.286-.717-.461-1.11-.477zm10.842-4.45c-2.234 0-2.23 3.409 0 3.409 2.231 0 2.227-3.409 0-3.409zm-112.31-4.78-.07.001c-.37.002-.715.093-1.035.277l-.417.315c-.254.254-.43.55-.529.892-.023.179-.047.359-.073.537-.01.279.05.539.179.78.081.249.223.467.423.651.187.196.406.336.661.416.245.127.509.186.791.175.371-.002.717-.093 1.037-.276.14-.106.277-.212.417-.315.234-.234.402-.505.502-.814l.024-.078.075-.539c.011-.277-.049-.537-.178-.778-.082-.251-.223-.467-.423-.651-.187-.197-.408-.336-.662-.416-.224-.116-.465-.176-.722-.177zm10.062-6.381c-.2-.007-.385.033-.559.122-.178.057-.333.156-.464.294-.277.218-.447.653-.447 1.006s.17.788.447 1.006c.181.175.393.298.638.365l.385.051c.373.017.753-.175 1.02-.416.053-.049.105-.097.159-.144.242-.22.347-.547.363-.862.006-.167-.031-.323-.108-.469-.049-.152-.135-.281-.255-.393-.054-.047-.106-.095-.159-.144-.29-.264-.63-.397-1.02-.416zm-63.745-11.369c-1.412-1.692-.59-2.896 1.531-2.477 3.654.486 7.092 2.758 10.31 4.387 3.512 1.826 7.132 3.331 10.714 5.046-1.478.893-2.577 2.291-3.417 3.886-1.677-1.252-3.82-1.851-5.911-1.929-3.796-3.577-10.081-4.396-13.227-8.913zm166.744 5.616c-.383.002-.741.09-1.077.267l-.072.039-.459.351c-.224.203-.381.444-.473.721-.142.266-.206.555-.195.864-.011.309.053.596.195.862.092.279.249.518.473.721.126.163.29.29.485.383.183.074.363.15.546.226.204.063.44.072.661.082.402-.002.775-.101 1.124-.3l.451-.342c.217-.199.371-.434.462-.706.127-.24.192-.497.192-.771l-.001-.075c0-.016 0-.036-.003-.055-.025-.198-.054-.397-.081-.595-.071-.292-.206-.548-.408-.764-.052-.101-.121-.183-.209-.251-.283-.279-.618-.469-1.005-.577-.202-.025-.404-.053-.606-.08zm-99.66-5.6-.065.001c-.29 0-.559.072-.808.213-.11.083-.217.165-.324.248-.2.196-.338.429-.413.695l-.058.418c-.006.218.039.419.14.607.064.194.174.364.331.507.144.154.315.262.515.326.189.099.395.143.617.135.287 0 .558-.072.807-.216.108-.08.217-.162.324-.245.182-.18.312-.39.391-.629l.02-.066.058-.419c.008-.217-.037-.418-.138-.606-.064-.196-.176-.366-.331-.507-.146-.155-.318-.262-.515-.326-.172-.089-.356-.134-.551-.136zm87.106-2.289-.075.001c-.427.002-.825.108-1.194.319-.159.121-.318.241-.477.364-.294.289-.496.632-.61 1.027l-.084.617c-.013.321.056.619.204.896.094.29.258.539.49.75.212.227.466.387.76.48.282.146.584.214.911.201.427 0 .825-.106 1.194-.317.159-.121.318-.243.479-.364.292-.291.494-.634.608-1.027l.084-.619c.013-.319-.056-.619-.204-.896-.095-.287-.258-.539-.488-.748-.215-.228-.468-.389-.762-.482-.26-.135-.538-.201-.836-.202zm-79.532-5.811c-.195-.051-.391-.051-.586 0-.292.012-.565.099-.819.258l-.444.338c-.006.006-.013.013-.019.021-.269.266-.456.581-.559.943l-.077.568c-.011.294.051.569.187.822.08.244.214.456.397.64l.071.068c.2.212.434.362.707.448.171.1.358.148.556.148.292.066.586.053.879-.038.173-.074.35-.146.526-.217l.056-.032c.663-.357 1.074-1.105 1.074-1.839 0-.733-.411-1.484-1.074-1.841-.02-.008-.037-.019-.056-.029-.254-.159-.526-.246-.819-.258z" fill="#33325e" fill-rule="evenodd"/><path clip-rule="evenodd" d="m297.995 162.294c.462-3.998-.136-12.354-.176-12.861-.254-3.21 1.275-15.883 4.164-14.715 4.846-3.775 11.3-4.609 17.336-5.007 12.536-.827 25.873 1.072 35.554 9.374 4.787 4.311 9.448 10.582 9.073 17.111 4.35 6.189 10.482 14.678 5.063 21.913-1.843 2.312-4.77 3.172-7.085 4.923-4.655 3.694-7.575 8.996-12.274 12.669-12.449 11.007-33.588 13.307-45.819.787-9.459-9.068-7.929-22.634-6.266-34.194 1.119-7.772-.472 7.799.43 0z" fill="#fff" fill-rule="evenodd"/><path clip-rule="evenodd" d="m336.067 112.758c-3.353-.665-6.796-1.08-10.22-.955l-.264.01c-2.576.101-5.838.326-8.086 1.8-.129-.128-.337-.194-.526-.105-2.67 1.254-5.608 2.161-8.42 3.062-2.799.897-5.703 1.489-8.637 1.728-1.103.09-2.048 1.262-1.349 2.314.166.251.328.504.489.758-.269-.028-.539-.056-.809-.083-.888-.088-1.775.844-1.722 1.695.033.535.092 1.063.178 1.585-.338-.006-.674.043-.999.178-1.644.684-1.53 2.611-1.407 4.077.171 2.035.944 4.191 2.381 5.714-1.073 1.095-1.832 2.404-2.284 3.958-.329 1.135-.512 2.344-.421 3.526l.028.353c.112 1.283.334 2.702 1.271 3.624.481.476 1.074.649 1.639.594-.342 2.955-.561 5.927-.767 8.888l-.097 1.415c-.46 6.843-.805 13.731-.715 20.586.084 6.406 1.37 12.624 5.363 17.825 3.637 4.737 8.858 8.228 14.765 9.556 3.183.716 6.433.767 9.655.31 1.561-.222 3.133-.562 4.616-1.099 1.641-.596 2.82-1.473 3.924-2.788.522-.623.271-1.95-.769-1.826-1.573.188-3.008.414-4.516.872l-.216.067c-1.501.473-3.056.826-4.626.976-3.216.307-6.481-.002-9.561-.961-5.015-1.564-9.335-5.05-12.103-9.429-3.286-5.19-3.658-11.083-3.611-17.051.051-6.55.268-13.103.621-19.646l.06-1.09c.187-3.367.368-6.736.526-10.105.05-1.056.125-2.122.26-3.176 1.24-.715 2.35-1.7 3.074-2.915 1.454.592 2.983 1.019 4.39 1.359 3.26.789 6.643.98 9.961.486.895.364 1.807.684 2.734.959.25.109.501.217.751.322 2.234.941 4.5 1.737 6.858 2.321l.579.142c1.241.301 2.589.597 3.91.69.217.083.451.153.707.214 1.203.287 2.451.378 3.684.277 1.2-.1 2.068-1.294 1.407-2.412-.484-.816-.971-1.629-1.463-2.441 1.712.702 3.479 1.285 5.262 1.78 1.8.498 3.626.919 5.454 1.306.977.205 1.958.387 2.933.592.699.145 1.77.222 2.34.674.629.496.807 1.655 1.046 2.369.313.928.608 1.86.876 2.803.535 1.881.973 3.789 1.312 5.717.34 1.929.568 3.878.694 5.833.127 1.953.071 3.918.275 5.863.11 1.031 1.235 1.562 2.066.841.098-.085.196-.17.293-.257l.145-.13c.712-.634 1.401-1.306 1.97-2.063.103-.139.202-.285.294-.433.015 0 .028-.004.043-.015l.158-.117c1.737-1.272 4.639-2.931 6.333-.817.54.673.816 1.531 1.046 2.358l.402 1.48c.26.967.505 1.939.649 2.927.324 2.215.161 4.768-1.388 6.544-.619.71-1.471 1.217-2.423 1.35-.53.072-1.054-.017-1.581-.082-.535-.066-1.05.04-1.585-.011-.85-.082-1.222.92-.904 1.55.172.338.374.629.603.877-.184.156-.36.325-.53.503-.503.158-.954.498-1.291.949-.273.363-.414.758-.438 1.175-.03.103-.056.209-.08.317l-.46.736c-.102.161-.203.321-.304.477-1.173 1.818-2.475 3.356-4.092 4.806-1.557 1.395-3.247 2.644-4.71 4.14l-.173.178c-1.363 1.414-2.801 3.126-2.267 5.182.137.529.887.909 1.376.552 1.575-1.15 2.368-2.972 3.703-4.367 1.375-1.437 2.898-2.728 4.277-4.161 1.304-1.353 2.333-2.885 3.108-4.572.309.336.76.575 1.385.668 1.074.159 2.075-.461 2.543-1.376.301.131.608.25.918.343 1.628.49 2.652-1.292 2.038-2.608-.329-.706-.739-1.319-1.248-1.835 1.592-.215 3.211-1.025 4.257-2.035 2.625-2.538 2.986-6.353 2.395-9.746-.314-1.798-.855-3.618-1.557-5.307-.122-.293-.254-.589-.397-.881.079-.002.161-.036.212-.101.475-.639 1.052-1.161 1.405-1.875.324-.655.685-1.319.941-2.001.526-1.397.783-2.974.955-4.452.355-3.024.217-6.029-.253-9.035-.801-5.119-2.736-10.017-5.586-14.316.155-.08.304-.177.442-.291l.069-.059.111-.099c.813-.724.743-2.082 0-2.815l-.235-.232c-.297-.291-.553-.521-1.033-.837-.071-.047-.144-.091-.217-.132.251-.457.339-.991.164-1.58-.61-2.054-3.613-1.981-5.516-1.086-2.106-1.849-4.441-3.454-6.971-4.754-6.028-3.094-12.843-5.252-19.497-6.571zm31.155 54.085c-1.126-.362-2.621.397-3.632.854-1.283.579-2.374 1.435-3.43 2.339-.527.453-.621 1.192-.49 1.824.013.064.026.129.041.195.139.674.904 1.204 1.581 1.185 1.415-.038 2.089-1.24 2.891-2.259.094.165.212.317.358.431l.099.076c.333.249.699.449 1.139.429.311-.014.609-.093.885-.234.687-.357.99-1.232.803-1.945-.116-.448-.382-.799-.73-1.042l.129-.087c.278-.19.531-.39.728-.686l.045-.07h-.018c.215-.363.075-.858-.399-1.01z" fill="#33325e" fill-rule="evenodd"/><path clip-rule="evenodd" d="m323.852 178.841c-1.201-1.945-3.763 2.819-4.035 3.638-.241.726-.4 1.469-.481 2.221-.931.206-1.898.206-2.853.026-1.419-.268-2.286-1.018-3.519-1.663-.851-.445-1.924.077-2.367.816-.521.869-.189 1.771.496 2.419 1.299 1.229 3.855 1.511 5.551 1.185.972-.187 1.863-.546 2.649-1.067.005.098.009.195.017.292l.015.168c.13 1.363.51 3.077 1.586 3.963 1.765 1.455 3.942-1.342 2.228-2.795l-.054-.044c-1.065-.847-1.298-3.12-1.24-4.372.037-.817.189-1.645.451-2.423l.054-.155c.079-.22.939-2.306 1.25-2.04l.015.015c.128.151.336-.025.237-.184zm-9.594-10.975c-1.622.97-4.093 3.232-2.348 5.638 2.054 2.12 5.011-.311 6.468-1.411 1.351-.852 2.869 1.34 1.616 2.335-10.53 7.671-14.803-6.308-6.556-7.702.908-.154 1.245.84.82 1.14zm17.32-8.967c-1.585-.276-3.209.112-4.521 1.024l-.099.07c-1.264.91-2.678 2.507-1.953 4.074.291.63 1.163.728 1.716.443.921-.475 1.088-1.644 1.909-2.291.674-.53 1.581-.852 2.449-.774 2.039.182 3.293 2.16 3.926 3.865.081.218.406.303.533.069 1.493-2.746-1.149-5.989-3.96-6.48zm-25.39-1.036c-3.037-.246-6.591 2.851-5.791 6.005.383 1.513 2.664 1.47 3.07 0 .223-.809.201-1.524.792-2.196.489-.555 1.183-.877 1.929-.827.822.054 1.58.459 2.157 1.027.52.513.831 1.264 1.371 1.718.132.112.31.119.441 0 .928-.842.371-2.594-.217-3.473-.842-1.257-2.213-2.129-3.752-2.254zm31.172-4.557c-1.948-1.697-5.487-3.335-8.114-2.5-1.51.48-2.168 2.874-.482 3.633 1.952.879 4.203.521 6.19 1.432.834.383 1.619.861 2.2 1.563.458.552.923 1.28 1.585 1.599.174.084.41.086.549-.07 1.451-1.615-.661-4.554-1.928-5.657zm-27.824-2.585c-1.204-.332-2.54-.325-3.763-.116-1.222.208-2.464.707-3.462 1.434l-.116.085c-1.089.808-2.39 1.984-2.32 3.415.058 1.195 1.336 2.004 2.439 1.377.9-.511 1.323-1.534 2.084-2.215.628-.563 1.366-1.006 2.154-1.317.874-.345 1.751-.507 2.689-.522.723-.012 1.45.221 2.159.296-.058.118.502.063.824-.042.238-.099.239-.395.157-.588-.41-.951-1.898-1.545-2.845-1.807z" fill="#33325e" fill-rule="evenodd"/><path clip-rule="evenodd" d="m333.394 189.599c-1.739-4.009-5.535-6.955-9.905-8.032-3.209-.789-6.576-.764-9.848-.451-1.713.163-3.552.296-5.167.923-1.379.535-2.503 1.546-3.348 2.733-1.006 1.407-1.691 3.017-2.171 4.667-.068.235-.133.471-.192.709.209 1.245.652 2.305 1.824 3.088 1.144.764 2.509 1.077 3.869 1.188.133-.063.262-.128.381-.194 2.119-1.195 3.612-4.017 6.287-3.635 2.388.341 3.96 3.298 5.38 5.031 4.558.523 9.113-.825 12.822-3.389.188-.878.199-1.764.068-2.638zm-33.729-3.041c.364-1.007.824-1.982 1.368-2.901 1.8-3.038 4.563-5.459 7.842-6.843 7.759-3.268 17.798-.964 24.063 4.397 2.141 1.833 4.305 4.526 4.959 7.423.196.038.38.138.532.279 4.527-2.805 9.189-5.503 12.837-9.39 2.649-2.825 4.491-6.168 5.62-9.841.092-.302.587-.258.572.077-.004.078-.008.156-.013.234.048-.144.271-.07.288.07.607 4.462 1.366 9.193.667 13.679-.418 2.676-1.654 4.635-3.306 6.751-1.769 2.268-3.773 4.377-5.821 6.4-1.3 1.284-2.658 2.765-4.25 3.707-1.851 1.094-3.951 1.925-5.926 2.769-2.01.862-4.05 1.657-6.129 2.347-4.155 1.384-8.449 2.34-12.818 2.759-3.499.334-7.497.698-10.85-.597-2.57-.992-4.644-2.786-6.289-4.944-1.791-2.351-3.207-5.029-3.99-7.852-.813-2.933.472-8.052.644-8.524z" fill="#33325e" fill-rule="evenodd"/><rect height="55" rx="27.5" stroke="#33325e" stroke-width="5" width="55" x="134.5" y="322.5"/></svg>