<svg fill="none" height="1300" viewBox="0 0 1300 1300" width="1300" xmlns="http://www.w3.org/2000/svg" xmlns:xlink="http://www.w3.org/1999/xlink"><linearGradient id="a" gradientUnits="userSpaceOnUse" x1="684.77" x2="1238.32" y1="485.5" y2="1197.26"><stop offset="0" stop-color="#fafaed"/><stop offset="1" stop-color="#fff" stop-opacity="0"/></linearGradient><rect fill="url(#a)" height="653" rx="173" width="960" x="170" y="445"/><g fill="#374649"><path d="m381.825 139.948c-6.6 2.6-11.8 7.1-25.9 22.4-31.1 33.8-50 62.6-55.8 85.1-2.6 9.9-2.8 26.7-.5 37.7 7.4 36 33.2 63.6 69.1 74 6.9 2 10.1 2.3 24.9 2.3 13.5 0 18.4-.4 24-1.9 34.1-9.2 58.8-33.2 69.1-67.1 2.5-8.1 2.8-10.6 2.8-24.5.1-13.6-.2-16.4-2.2-23-7.3-23.2-26-51.1-56-83.4-13.2-14.2-20.1-20-26.1-22.1-6.2-2.1-17.4-1.9-23.4.5zm20 86.7c9.7 12.1 16 21.5 20.1 30.1 3.1 6.5 3.4 7.9 2.9 13.1-1.8 20.2-24.4 33.3-42.9 24.9-10.4-4.8-16.4-12.3-18.8-23.5-1-4.5-.9-5.7 1.3-11 1.3-3.3 4.9-9.8 7.8-14.4 6-9.3 20.5-27.9 21.7-27.9.5 0 4 3.9 7.9 8.7z"/><path d="m637.825 139.948c-6.6 2.6-11.8 7.1-25.9 22.4-31.1 33.8-50 62.6-55.8 85.1-2.6 9.9-2.8 26.7-.5 37.7 7.4 36 33.2 63.6 69.1 74 6.9 2 10.1 2.3 24.9 2.3 13.5 0 18.4-.4 24-1.9 34.1-9.2 58.8-33.2 69.1-67.1 2.5-8.1 2.8-10.6 2.8-24.5.1-13.6-.2-16.4-2.2-23-7.3-23.2-26-51.1-56-83.4-13.2-14.2-20.1-20-26.1-22.1-6.2-2.1-17.4-1.9-23.4.5zm20 86.7c9.7 12.1 16 21.5 20.1 30.1 3.1 6.5 3.4 7.9 2.9 13.1-1.8 20.2-24.4 33.3-42.9 24.9-10.4-4.8-16.4-12.3-18.8-23.5-1-4.5-.9-5.7 1.3-11 1.3-3.3 4.9-9.8 7.8-14.4 6-9.3 20.5-27.9 21.7-27.9.5 0 4 3.9 7.9 8.7z"/><path d="m893.825 139.948c-6.6 2.6-11.8 7.1-25.9 22.4-31.1 33.8-50 62.6-55.8 85.1-2.6 9.9-2.8 26.7-.5 37.7 7.4 36 33.2 63.6 69.1 74 6.9 2 10.1 2.3 24.9 2.3 13.5 0 18.4-.4 24-1.9 34.1-9.2 58.8-33.2 69.1-67.1 2.505-8.1 2.805-10.6 2.805-24.5.1-13.6-.2-16.4-2.205-23-7.3-23.2-26-51.1-56-83.4-13.2-14.2-20.1-20-26.1-22.1-6.2-2.1-17.4-1.9-23.4.5zm20 86.7c9.7 12.1 16 21.5 20.1 30.1 3.1 6.5 3.4 7.9 2.9 13.1-1.8 20.2-24.4 33.3-42.9 24.9-10.4-4.8-16.4-12.3-18.8-23.5-1-4.5-.9-5.7 1.3-11 1.3-3.3 4.9-9.8 7.8-14.4 6-9.3 20.5-27.9 21.7-27.9.5 0 4 3.9 7.9 8.7z"/><path d="m382.025 427.848c-6 2.3-11 6.2-14.4 11.1-5.5 7.9-5.6 9.4-5.5 47.6l.1 35.2-25.3.5c-22.4.3-26.1.6-32.7 2.6-35.7 10.6-61.2 38.1-68.6 73.8-1.4 6.5-1.5 28.3-1.5 179.4 0 149.7.2 173 1.5 179.4 7.4 35.7 33.3 63.302 69.1 73.702l7.9 2.3h337c327.5 0 337.2-.1 344-1.9 34.105-9.2 58.495-32.902 69.205-67.102l2.79-9v-177.5-177.5l-2.79-9c-10.6-34.1-34.8-57.6-68.705-67-5.2-1.4-11.5-1.9-31.2-2.2l-24.8-.5v-34.8c0-41.7-.1-42.2-9.5-51.6-7.1-7.1-12.5-9.4-22.7-9.4-11.1 0-20.5 4.6-26.3 13-5.5 7.9-5.6 9.4-5.5 47.7l.1 35.3h-96.1-96v-34.9c0-41.8-.1-42.2-9.5-51.7-7.1-7.1-12.5-9.4-22.7-9.4-11.1 0-20.5 4.6-26.3 13-5.5 7.9-5.6 9.4-5.5 47.7l.1 35.3h-96.1-96v-34.9c0-41.8-.1-42.2-9.5-51.7-4.2-4.3-7.5-6.6-10.9-7.7-6.6-2.2-17.7-2.1-23.7.2zm601.3 161.9c6.8 3.3 11.8 8.2 15.2 14.9 3.205 6.3 3.805 18 3.395 61.1-.5 46.8-.89 50-7.795 64.9-4.8 10.3-8.8 16.1-16.2 23.5-15.3 15.3-34.5 23.1-56.3 23-13 0-22.9-2.3-33.7-7.8-13.4-6.6-23.7-16-33.7-30.6-8.2-11.9-15.9-16.2-29.2-16-11.9.1-20 5-28.1 17-12.6 18.8-29 30.6-49.3 35.7-9.8 2.5-26.5 2.3-36.7-.4-8.7-2.3-20-7.6-26.8-12.6-6.5-4.8-15.8-14.8-21.9-23.7-8.2-11.9-15.9-16.2-29.2-16-11.9.1-20 5-28.1 17-6.5 9.7-13.6 17.2-21.3 22.7-31.5 22.4-71.3 19.5-100.5-7.3-8.7-7.9-13.8-10.4-22.6-11-11.2-.7-16.4 1.4-28.1 11.4-17.9 15.3-33.7 21.6-54.3 21.6-36 0-65.8-22.5-76.6-57.7l-2.8-9-.4-46.7c-.4-50.8-.1-54.3 5.2-62.6 4.3-6.9 12.7-12.5 20.9-14.2 2.3-.4 150-.7 328.2-.6l324 .1zm-342.4 221.6c12.9 10.3 25.7 17.3 41.8 22.9 18 6.3 24.4 7.2 48.4 7.1 20.7 0 21.9-.2 33-3.1 21.2-5.6 36.7-13 53.1-25.5l9-6.8 6.7 5.3c17.1 13.7 37.7 23.4 60.2 28.3 12.2 2.7 45.8 2.7 58 0 15.6-3.4 34.6-10.9 46.2-18.2 2.1-1.3 4.005-2.4 4.295-2.4 1 0 .5 116.4-.59 122.9-1.805 11.5-7.505 19.3-17.705 24.3l-6.7 3.3h-326.5-326.5l-5.5-2.6c-10.3-4.9-15.8-11.3-18.5-21.6-1.2-4.8-1.5-15.9-1.5-66 0-33.2.3-60.3.6-60.3s1.8.8 3.2 1.9c9.4 6.6 31 15.2 47.2 18.7 12.1 2.7 45.8 2.7 58 0 16.1-3.5 31.7-9.8 47.7-19.2 3.1-1.8 3.2-1.8 7 .4 7.3 4.5 23.9 12.1 31.4 14.5 16.3 5.3 22.9 6.2 45.9 6.1 20.6-.1 22-.2 33-3.1 21.2-5.6 37-13.2 52.8-25.4 4.8-3.7 8.8-6.8 9-6.8.2-.1 3.3 2.3 7 5.3z"/><path d="m189.425 1100.05c-6 2.3-13.2 8.8-16.2 14.7-4.3 8.5-4.3 21.9 0 30.4 3.1 6 10.2 12.4 16.5 14.7l5.5 2.1h454.8c422.305 0 455.095-.1 459.705-1.7 7.1-2.4 16.39-12 18.69-19.2 2.2-6.8 2.2-15.4 0-22.2-2.3-7.2-11.59-16.8-18.69-19.2-4.61-1.6-37.31-1.7-460.005-1.6-453.1 0-455.1 0-460.3 2z"/></g></svg>