<svg fill="none" height="82" viewBox="0 0 449 82" width="449" xmlns="http://www.w3.org/2000/svg"><g fill="#374649"><path d="m68.6045 48.5c-2.64 2.28-9.78 6.12-17.22 6.12-17.22 0-10.86-22.08-23.28-27.78 5.46-3.18 11.64-8.34 12.6-13.02 1.38-6.18001-2.46-8.82001-9-8.82001h-22.50001l-.24 1.2c1.98001 0 3.30001 3.12 2.88001 5.04001l-6.30001 29.58c-.36 1.92-3.12 5.16-5.099997 5.16l-.12 1.02h16.860007l.18-1.02c-1.86 0-3.24-3.24-2.88-5.16l1.68-7.5c.9-.48 2.28-1.08 3.24-1.62 9.18 0 3.54 28.92 28.2 28.92 11.34 0 19.14-8.16 21.66-11.76zm-47.88-36.9c.42-1.92001 2.22-3.60001 4.08-3.60001h1.02c3.12 0 4.62 3.24001 3.9 6.42001-1.14 5.46-6.24 11.52-12.9 15.72z"/><path d="m72.1264 41c-.6 1.55-1.4 3.65-2.75 3.65-1.1 0-1-1.5-.7-2.8l4.55-21.35c-1.1 0-4.9-.15-7.6-.2-.95 0-1.85-.05-2.6 0-7.55.25-15.7 6.15-17.55 14.85-1.35 6.45.5 11.75 7.5 12.05 1 .05 2.1-.05 3.15-.4 2.55-.6 4.55-3.7 5.45-5.75-.1.6-.15.7-.2 1.3-.3 1.5.2 2.5.85 3.05.85 1.1 2.7 1.8 5.1 1.65 5.45-.3 6.55-4.25 7.2-6.05zm-9.45-5.2c-.9 2.3-3.3 7.4-5.95 7.4-2.25 0-4-2.8-2.85-8.15s5.65-10.55 9.05-11.75c.95-.4 1.75-.35 2.5-.35z"/><path d="m85.5369 25.85c.3-1.55 1.9-2.95 3.8-2.95 3.25 0 3.15 3.8 3 4.7 0 0 2.3 1.25 4.2-.55 2.25-2.05 1.3-7.25-6.85-7.25-5.4 0-10 3.25-10.8 7.1-1.85 8.8 10.6 8.85 9.55 13.9-.4 1.65-2.3 2.85-4.1 2.85-5.2 0-5.5-4.5-4.55-8.1 0 0-3.95 1.65-4.65 5.05-.65 2.9 1.65 6.75 8.5 6.75 6.2 0 11.35-3.15 12.45-8.15 1.4-6.8-11.4-9.3-10.55-13.35z"/><path d="m110.956 41.8c-.25 1.1-1.05 2.1-2 2.1-1.05 0-1.65-1.1-.85-4.9l3.3-15.5h5.85l1.25-3.25h-6.6l2.3-10.80001-5.75 4.60001c-1 4.6-2.7 6.7-6.35 6.7l-.6 2.75h2.6l-3.25 15.4c-1.2503 5.8.9 8.35 6.9 8.35 2.35 0 6.35-1.7 6.9-3.9.4-1.45-.4-2.6-1.8-2.6-.8 0-1.6.75-1.9 1.05z"/><path d="m128.189 25.85c.3-1.55 1.9-2.95 3.8-2.95 3.25 0 3.15 3.8 3 4.7 0 0 2.3 1.25 4.2-.55 2.25-2.05 1.3-7.25-6.85-7.25-5.4 0-10 3.25-10.8 7.1-1.85 8.8 10.6 8.85 9.55 13.9-.4 1.65-2.3 2.85-4.1 2.85-5.2 0-5.5-4.5-4.55-8.1 0 0-3.95 1.65-4.65 5.05-.65 2.9 1.65 6.75 8.5 6.75 6.2 0 11.35-3.15 12.45-8.15 1.4-6.8-11.4-9.3-10.55-13.35z"/><path d="m153.608 41.8c-.25 1.1-1.05 2.1-2 2.1-1.05 0-1.65-1.1-.85-4.9l3.3-15.5h5.85l1.25-3.25h-6.6l2.3-10.80001-5.75 4.60001c-1 4.6-2.7 6.7-6.35 6.7l-.6 2.75h2.6l-3.25 15.4c-1.25 5.8.9 8.35 6.9 8.35 2.35 0 6.35-1.7 6.9-3.9.4-1.45-.4-2.6-1.8-2.6-.8 0-1.6.75-1.9 1.05z"/><path d="m186.765 41c-.6 1.55-1.4 3.65-2.75 3.65-1.1 0-1-1.5-.7-2.8l4.55-21.35c-1.1 0-4.9-.15-7.6-.2-.95 0-1.85-.05-2.6 0-7.55.25-15.7 6.15-17.55 14.85-1.35 6.45.5 11.75 7.5 12.05 1 .05 2.1-.05 3.15-.4 2.55-.6 4.55-3.7 5.45-5.75-.1.6-.15.7-.2 1.3-.3 1.5.2 2.5.85 3.05.85 1.1 2.7 1.8 5.1 1.65 5.45-.3 6.55-4.25 7.2-6.05zm-9.45-5.2c-.9 2.3-3.3 7.4-5.95 7.4-2.25 0-4-2.8-2.85-8.15s5.65-10.55 9.05-11.75c.95-.4 1.75-.35 2.5-.35zm-4.5-19.15c2 0 3.9-1.65 4.3-3.55.45-1.95-.8-3.60001-2.75-3.60001s-3.9 1.65001-4.3 3.60001c-.4 1.9.85 3.55 2.75 3.55zm10.1 0c1.95 0 3.85-1.65 4.25-3.5.4-2-.75-3.65001-2.75-3.65001s-3.85 1.65001-4.3 3.65001c-.4 1.85.85 3.5 2.8 3.5z"/><path d="m201.926 41.8c-.25 1.1-1.1 2.1-2.05 2.1-.9 0-1.7-.7-.75-5.3l3.2-15.1h10.25l-3.3 15.4c-1.45 6.8 1.85 8.35 6.95 8.35 2.55 0 6.45-1.8 6.9-3.95.3-1.5-.1-2.55-1.55-2.55-.9 0-1.8.75-2.15 1.05-.25 1.1-1.1 2.1-2 2.1-1.15 0-1.65-1.15-.8-5.3l3.25-15.1h5.9l1.15-3.25h-6.6l2.3-10.80001-5.8 4.60001c-.95 4.6-2.55 6.2-6.1 6.2h-7.9l2.3-10.80001-5.75 4.60001c-1 4.6-2.75 6.7-6.35 6.7l-.55 2.75h2.6l-3.3 15.4c-1.3 6 1.25 8.35 6.7 8.35 2.9 0 6.7-1.75 7.15-4.05.3-1.35-.1-2.45-1.5-2.45-1.05 0-1.85.75-2.2 1.05z"/><path d="m248.755 40.45c-1.8 1.4-4.3 2.7-7.2 2.7-3.35 0-6.9-2.8-6.65-6.55 1.75-.55 4.75-1.35 7.45-2.1 4.2-1.1 8.3-3.4 8.3-7.6-.05-3.05-1.95-6.95-8.4-6.95-10.05 0-16.25 9.2-16 17.05.15 5.95 4.1 10.3 11.7 10.3 5.55 0 10.3-4.05 11.75-5.55zm-6.8-17.35c1.95 0 3.15 1.7 3.15 3.5 0 2-1 4-3.5 4.7-2 .6-5.05 1.5-6.5 1.95.55-5.95 4.15-10.15 6.85-10.15z"/><path d="m299.262 20.84c3.78-2.4 6.54-6.42 7.14-9.24 1.26-5.94001-3.42-10.920007-17.22-10.920007-8.16 0-25.02 5.219997-28.38 21.000007l3.42 2.82c.42-8.4 9.12-19.50001 23.22-19.50001 5.82 0 10.02 2.4 8.88 7.68001-1.14 5.46-7.08 8.22-11.58 10.74l1.68-7.98c.42-1.92 2.76-5.16 4.68-5.16l.18-1.08001h-15.96l-.24 1.08001c1.74 0 2.7 2.52 2.58 4.44l-5.7 26.82c-.36 1.74-2.94 4.26-4.92 4.26l-.18 1.2h15c11.34 0 22.8-5.94 24.72-15.06 1.32-6.3-3.36-10.62-7.32-11.1zm-16.56 22.74c-1.56 0-2.16-.48-1.62-3l3-13.92c2.82-1.68 5.64-2.88 7.8-2.88 4.8 0 6 4.26 5.1 8.64-1.32 6.24-9.42 11.16-14.28 11.16z"/><path d="m319.567 41c-.6 1.55-1.45 3.65-2.8 3.65-1.2 0-.9-1.5-.65-2.8l7.15-33.50001-10.95 2.35001-.2 1.05c1.65 0 2.8 1.85 2.45 3.55l-5.65 26.55c-.8 3.7 1.35 5.4 5.35 5.4 5.65 0 7-4.25 7.7-6.25z"/><path d="m340.674 19.8c-8.4 0-15.8 6.15-17.45 13.8-1.6 7.65 3.2 13.85 11.6 13.85 8.45 0 15.85-6.2 17.45-13.85 1.65-7.65-3.15-13.8-11.6-13.8zm-4.35 24.7c-3.65 0-5.7-4.7-4.8-11.1.9-6.3 4.35-10.95 7.45-10.95 3.5 0 5.55 5 4.6 11.35-.95 6.4-4.2 10.7-7.25 10.7z"/><path d="m398.347 41c-.6 1.55-1.4 3.65-2.75 3.65-1.2 0-.95-1.5-.7-2.8l2.7-12.5c1.65-7.7-1.55-9.45-5.25-9.45-3.95 0-8.1 3.8-10.25 6.3-.05-1.95-.7-6.3-5.45-6.3-4.45 0-9.25 5.4-11.3 9.2l1.4-8.85-10.75 1.3-.25 1.05c1.7 0 3.3 1.55 2.95 3.25l-4.45 21.15h7.4l2.9-13.9c1.15-2.05 5.35-9 8.3-9 .6 0 2.95 0 1.85 5.25l-3.7 17.65h7.3l3.55-16.95c.9-2.1 3.95-5.95 6.35-5.95.5 0 3.3-.1 2.2 5.25l-2.7 12.5c-.75 3.85 1.45 5.4 5.3 5.4 5.8 0 7.15-4.35 7.75-6.25z"/><path d="m438.3 39.35c-4.9 0-14.8 4.45-20.35 4.45-4.3 0-7.25-3.55-7.25-7.2 1.75-.55 4.75-1.35 7.45-2.1 4.2-1.1 8.35-3.4 8.35-7.6-.1-3.05-2-6.95-8.45-6.95-10.15 0-16.45 9.45-15.95 17.35.4 6.45 5.75 10.75 12.7 10.75 8.05 0 18.2-5.6 23.5-5.6 4.9 0 7 4.85 6.25 8.5-.3 1.35-1.25 2.45-3 2.9 0 0-.15 1.3 0 1.25 3.3-.8 6.3-4.05 6.9-6.75.9-4.35-1-9-10.15-9zm-20.55-16.25c1.95 0 3.15 1.7 3.15 3.5 0 2-1 4-3.5 4.7-2 .6-5.05 1.5-6.5 1.95.6-5.95 4.2-10.15 6.85-10.15z"/></g><path d="m76.9584 58.5-.075.4c.825 0 1.125 1.375.975 2.15l-2.775 13.125c-.175.775-.95 1.425-1.775 1.425 0 .15-.025.275-.025.4h1.15c6.175 0 14.35-4.525 15.825-11.4.65-3.1-1.2-6.1-5.775-6.1zm1.675 15.65c-.45.15-.825.075-.675-.65l2.625-12.35c.275-1.375 1.3-1.55 2.85-1.55 2.7 0 4.175 2.25 3.55 5.2-1.1 5.175-5.3 8.275-8.35 9.35z" fill="#52926b"/><path d="m101.253 73c-.9.75-2.0999 1.55-3.8499 1.55-1.775 0-3.875-1.45-3.725-3.975.425-.125 2.725-.725 4.55-1.175 2.0749-.5 3.8249-1.625 3.8249-3.725-.025-1.475-.875-3.2-3.7499-3.2-4.6 0-7.725 4.6-7.65 8.4.025 3.025 2.1 5.275 5.5 5.275 2.775 0 4.7999-1.9 5.4749-2.65zm-3.1249-9.325c1.225 0 1.85.9 1.85 1.875 0 1.075-.65 2.25-2.025 2.625-1.15.325-3.8 1.05-4.175 1.175.275-2.975 2.325-5.675 4.35-5.675z" fill="#52926b"/><path d="m105.461 65.325-2.225 10.675h2.625l1.45-6.95c.9-1.8 2.2-4.45 3.375-4.45 1.575 0 1.325 1.85 1.675 1.85.725 0 1.55-.7 1.775-1.75.2-.975-.225-1.875-1.125-2.1-.275-.075-.6-.075-.95-.025-1.3.25-3.225 2.25-4.3 4.375l.825-4.325-4.125.475-.1.425c.85 0 1.3.95 1.1 1.8z" fill="#52926b"/><path d="m135.057 59.05c.05-.325-.1-.55-.4-.55h-11.8c-.3 0-.55.225-.6.55l-1.175 4.5h.425c.325-1.6 2.4-4.3 4.85-4.3.65 0 .8.3.375 2.4l-2.525 11.775c-.15.775-1.1 2.175-1.875 2.175l-.05.4h5.6l.05-.4c-.825 0-1.1-1.4-.95-2.175l2.5-11.775c.45-2.1.725-2.4 1.4-2.4 2.4 0 3.35 2.725 3.025 4.3h.375z" fill="#52926b"/><path d="m136.522 65.325-2.225 10.675h2.625l1.45-6.95c.9-1.8 2.2-4.45 3.375-4.45 1.575 0 1.325 1.85 1.675 1.85.725 0 1.55-.7 1.775-1.75.2-.975-.225-1.875-1.125-2.1-.275-.075-.6-.075-.95-.025-1.3.25-3.225 2.25-4.3 4.375l.825-4.325-4.125.475-.1.425c.85 0 1.3.95 1.1 1.8z" fill="#52926b"/><path d="m155.96 73c-.9.75-2.1 1.55-3.85 1.55-1.775 0-3.875-1.45-3.725-3.975.425-.125 2.725-.725 4.55-1.175 2.075-.5 3.825-1.625 3.825-3.725-.025-1.475-.875-3.2-3.75-3.2-4.6 0-7.725 4.6-7.65 8.4.025 3.025 2.1 5.275 5.5 5.275 2.775 0 4.8-1.9 5.475-2.65zm-3.125-9.325c1.225 0 1.85.9 1.85 1.875 0 1.075-.65 2.25-2.025 2.625-1.15.325-3.8 1.05-4.175 1.175.275-2.975 2.325-5.675 4.35-5.675z" fill="#52926b"/><path d="m175.693 56.9c-2.05 0-4.35 1.125-4.95 3.975-.175.8-.325 1.425-.425 1.9h-5.825c.15-1.475.725-4.625 2.25-4.625 1.7 0 .3 2.675 1.15 2.775.25.075.5.05.9-.075.6-.125 1-.525 1.1-1.05.3-1.4-1.05-2.675-2.95-2.675-1.6 0-4.025 1-4.625 3.75-.175.8-.35 1.425-.45 1.9h-1.525l-.25 1.1h1.525l-2.475 11.675c-.175.825-.375 1.725-.625 2.55-.375 1.4-1.325 2.65-2.15 2.65-.925 0-1.15-1.25-1.1-1.85 0-.275.125-.4.125-.525 0 0-.2-.65-.9-.65-.875 0-1.4.675-1.45 1.45-.125 1.575 1.225 2.5 3.075 2.5 3.4 0 5.35-4.725 5.8-6.875l2.35-10.925h5.8l-2.475 11.675c-.175.825-.375 1.725-.625 2.55-.4 1.4-1.325 2.65-2.15 2.65-.925 0-1.15-1.25-1.1-1.85 0-.275.125-.4.125-.525 0 0-.2-.65-.9-.65-.9 0-1.4.675-1.45 1.45-.15 1.6 1.225 2.5 3.05 2.5 3.4 0 5.375-4.725 5.825-6.875l2.35-10.925h3.8l.4-1.1h-3.975c.325-1.775.675-4.875 2.65-4.875 1.625 0 1.05 2.175.925 2.725 0 0 .15.575.925.575.95 0 1.475-.575 1.625-1.325.35-1.65-1.25-2.975-3.375-2.975z" fill="#52926b"/><path d="m188.611 68.45c.875-4.2-2-5.9-5.675-5.9-1.725 0-5.45.65-6.25.725l.125 1.65c.425-.175 1.075-.4 1.5-.45l-3.075 14.5c-.225 1.025-1.15 2.3-1.95 2.3l-.1.4h5.6l.1-.4c-.85 0-1.25-1.125-1-2.3l.725-3.375c3.8.775 9-2.65 10-7.15zm-7.675-4.475c.5-.15 1.1-.225 1.85-.225 2.075 0 3.45 1.425 2.75 4.725-.775 3.7-4.4 6.6-6.7 6.025z" fill="#52926b"/><path d="m202.792 73c-.3.775-.825 1.825-1.5 1.825-.575 0-.55-.75-.425-1.4l2.3-10.8-3.725.475-.1.425c.85 0 .85.65.6 1.775-.225 1.025-.425 2.025-.625 3.05-.95 2.6-2.5 6.425-4.85 6.425-.8 0-2.175-.35-1.5-3.5l1.825-8.65-3.725.475-.1.425c.825 0 .85.575.6 1.775l-1.25 5.975c-.75 3.55.55 4.85 3.025 4.85 2.4 0 4.475-2.8 5.35-4.575-.075.55-.225 1.6-.3 2.55.025 1.625 1.125 2 2 2 2.1 0 3.125-2.2 3.4-3.1z" fill="#52926b"/><path d="m218.026 73c-.3.775-.875 1.825-1.55 1.825-.575 0-.5-.75-.375-1.4l1.35-6.25c.725-3.525-.225-4.725-2.7-4.725-2.15 0-4.775 3.075-5.775 4.975l.75-4.8-3.975.475-.075.4c.85 0 1.275.925 1.1 1.775l-2.25 10.725h2.65l1.45-6.925c.65-1.25 3.25-4.925 4.85-4.925 1.125 0 1.825.6 1.325 3.025l-1.35 6.25c-.35 1.7.35 2.675 2.075 2.675 2.3 0 3.2-2.2 3.5-3.1z" fill="#52926b"/><path d="m231.785 73c-.3.775-.8 1.625-1.475 1.625s-.65-1.175-.725-1.875c-.35-3.325-1.35-4.875-3.225-5.175 2-1.675 3.525-3.15 4.5-3.15.55 0 1-.475 1.05-.95.025-.375-.225-.85-.875-.85-1.05-.025-2.375 1.375-3.8 2.7l-3.25 3.15 2.525-11.8-4.35.975-.075.4c.825 0 1.275.925 1.1 1.775l-3.425 16.175h2.65l1.25-5.95s.9-.775 1.2-1.05c1.6 0 1.925 2.575 2.2 4.7.175 1.225.9 2.4 2.375 2.4 1.875 0 3-2.125 3.35-3.1z" fill="#52926b"/><path d="m239.303 73.425c-.125.55-.625 1.45-1.5 1.45-.8 0-1.275-.875-.85-2.975l1.725-8.025h3.475l.525-1.25h-3.75l1.15-5.4-2.025 1.675c-.475 2.3-1.6 3.975-3.125 3.975l-.2 1h1.3l-1.725 8.075c-.625 3.025.775 4.175 3.1 4.175 1.325 0 3.25-.95 3.5-2.025.15-.6-.075-1.15-.725-1.15-.375 0-.725.325-.875.475z" fill="#52926b"/><path d="m244.623 76.12c.96 0 1.92-.81 2.13-1.77s-.42-1.77-1.38-1.77-1.92.81-2.13 1.77c-.18.96.42 1.77 1.38 1.77z" fill="#ec6a6a"/></svg>