<svg width="449" height="82" viewBox="0 0 449 82" fill="none" xmlns="http://www.w3.org/2000/svg">
<path d="M68.6045 48.5C65.9645 50.78 58.8245 54.62 51.3845 54.62C34.1645 54.62 40.5245 32.54 28.1045 26.84C33.5645 23.66 39.7445 18.5 40.7045 13.82C42.0845 7.63999 38.2445 4.99999 31.7045 4.99999H9.20449L8.96449 6.19999C10.9445 6.19999 12.2645 9.31999 11.8445 11.24L5.54449 40.82C5.18449 42.74 2.42449 45.98 0.444493 45.98L0.324493 47H17.1845L17.3645 45.98C15.5045 45.98 14.1245 42.74 14.4845 40.82L16.1645 33.32C17.0645 32.84 18.4445 32.24 19.4045 31.7C28.5845 31.7 22.9445 60.62 47.6045 60.62C58.9445 60.62 66.7445 52.46 69.2645 48.86L68.6045 48.5ZM20.7245 11.6C21.1445 9.67999 22.9445 7.99999 24.8045 7.99999H25.8245C28.9445 7.99999 30.4445 11.24 29.7245 14.42C28.5845 19.88 23.4845 25.94 16.8245 30.14L20.7245 11.6Z" fill="#374649"/>
<path d="M72.1264 41C71.5264 42.55 70.7264 44.65 69.3764 44.65C68.2764 44.65 68.3764 43.15 68.6764 41.85L73.2264 20.5C72.1264 20.5 68.3264 20.35 65.6264 20.3C64.6764 20.3 63.7764 20.25 63.0264 20.3C55.4764 20.55 47.3264 26.45 45.4764 35.15C44.1264 41.6 45.9764 46.9 52.9764 47.2C53.9764 47.25 55.0764 47.15 56.1264 46.8C58.6764 46.2 60.6764 43.1 61.5764 41.05C61.4764 41.65 61.4264 41.75 61.3764 42.35C61.0764 43.85 61.5764 44.85 62.2264 45.4C63.0764 46.5 64.9264 47.2 67.3264 47.05C72.7764 46.75 73.8764 42.8 74.5264 41H72.1264ZM62.6764 35.8C61.7764 38.1 59.3764 43.2 56.7264 43.2C54.4764 43.2 52.7264 40.4 53.8764 35.05C55.0264 29.7 59.5264 24.5 62.9264 23.3C63.8764 22.9 64.6764 22.95 65.4264 22.95L62.6764 35.8Z" fill="#374649"/>
<path d="M85.5369 25.85C85.8369 24.3 87.4369 22.9 89.3369 22.9C92.5869 22.9 92.4869 26.7 92.3369 27.6C92.3369 27.6 94.6369 28.85 96.5369 27.05C98.7869 25 97.8369 19.8 89.6869 19.8C84.2869 19.8 79.6869 23.05 78.8869 26.9C77.0369 35.7 89.4869 35.75 88.4369 40.8C88.0369 42.45 86.1369 43.65 84.3369 43.65C79.1369 43.65 78.8369 39.15 79.7869 35.55C79.7869 35.55 75.8369 37.2 75.1369 40.6C74.4869 43.5 76.7869 47.35 83.6369 47.35C89.8369 47.35 94.9869 44.2 96.0869 39.2C97.4869 32.4 84.6869 29.9 85.5369 25.85Z" fill="#374649"/>
<path d="M110.956 41.8C110.706 42.9 109.906 43.9 108.956 43.9C107.906 43.9 107.306 42.8 108.106 39L111.406 23.5H117.256L118.506 20.25H111.906L114.206 9.44999L108.456 14.05C107.456 18.65 105.756 20.75 102.106 20.75L101.506 23.5H104.106L100.856 38.9C99.6057 44.7 101.756 47.25 107.756 47.25C110.106 47.25 114.106 45.55 114.656 43.35C115.056 41.9 114.256 40.75 112.856 40.75C112.056 40.75 111.256 41.5 110.956 41.8Z" fill="#374649"/>
<path d="M128.189 25.85C128.489 24.3 130.089 22.9 131.989 22.9C135.239 22.9 135.139 26.7 134.989 27.6C134.989 27.6 137.289 28.85 139.189 27.05C141.439 25 140.489 19.8 132.339 19.8C126.939 19.8 122.339 23.05 121.539 26.9C119.689 35.7 132.139 35.75 131.089 40.8C130.689 42.45 128.789 43.65 126.989 43.65C121.789 43.65 121.489 39.15 122.439 35.55C122.439 35.55 118.489 37.2 117.789 40.6C117.139 43.5 119.439 47.35 126.289 47.35C132.489 47.35 137.639 44.2 138.739 39.2C140.139 32.4 127.339 29.9 128.189 25.85Z" fill="#374649"/>
<path d="M153.608 41.8C153.358 42.9 152.558 43.9 151.608 43.9C150.558 43.9 149.958 42.8 150.758 39L154.058 23.5H159.908L161.158 20.25H154.558L156.858 9.44999L151.108 14.05C150.108 18.65 148.408 20.75 144.758 20.75L144.158 23.5H146.758L143.508 38.9C142.258 44.7 144.408 47.25 150.408 47.25C152.758 47.25 156.758 45.55 157.308 43.35C157.708 41.9 156.908 40.75 155.508 40.75C154.708 40.75 153.908 41.5 153.608 41.8Z" fill="#374649"/>
<path d="M186.765 41C186.165 42.55 185.365 44.65 184.015 44.65C182.915 44.65 183.015 43.15 183.315 41.85L187.865 20.5C186.765 20.5 182.965 20.35 180.265 20.3C179.315 20.3 178.415 20.25 177.665 20.3C170.115 20.55 161.965 26.45 160.115 35.15C158.765 41.6 160.615 46.9 167.615 47.2C168.615 47.25 169.715 47.15 170.765 46.8C173.315 46.2 175.315 43.1 176.215 41.05C176.115 41.65 176.065 41.75 176.015 42.35C175.715 43.85 176.215 44.85 176.865 45.4C177.715 46.5 179.565 47.2 181.965 47.05C187.415 46.75 188.515 42.8 189.165 41H186.765ZM177.315 35.8C176.415 38.1 174.015 43.2 171.365 43.2C169.115 43.2 167.365 40.4 168.515 35.05C169.665 29.7 174.165 24.5 177.565 23.3C178.515 22.9 179.315 22.95 180.065 22.95L177.315 35.8ZM172.815 16.65C174.815 16.65 176.715 15 177.115 13.1C177.565 11.15 176.315 9.49999 174.365 9.49999C172.415 9.49999 170.465 11.15 170.065 13.1C169.665 15 170.915 16.65 172.815 16.65ZM182.915 16.65C184.865 16.65 186.765 15 187.165 13.15C187.565 11.15 186.415 9.49999 184.415 9.49999C182.415 9.49999 180.565 11.15 180.115 13.15C179.715 15 180.965 16.65 182.915 16.65Z" fill="#374649"/>
<path d="M201.926 41.8C201.676 42.9 200.826 43.9 199.876 43.9C198.976 43.9 198.176 43.2 199.126 38.6L202.326 23.5H212.576L209.276 38.9C207.826 45.7 211.126 47.25 216.226 47.25C218.776 47.25 222.676 45.45 223.126 43.3C223.426 41.8 223.026 40.75 221.576 40.75C220.676 40.75 219.776 41.5 219.426 41.8C219.176 42.9 218.326 43.9 217.426 43.9C216.276 43.9 215.776 42.75 216.626 38.6L219.876 23.5H225.776L226.926 20.25H220.326L222.626 9.44999L216.826 14.05C215.876 18.65 214.276 20.25 210.726 20.25H202.826L205.126 9.44999L199.376 14.05C198.376 18.65 196.626 20.75 193.026 20.75L192.476 23.5H195.076L191.776 38.9C190.476 44.9 193.026 47.25 198.476 47.25C201.376 47.25 205.176 45.5 205.626 43.2C205.926 41.85 205.526 40.75 204.126 40.75C203.076 40.75 202.276 41.5 201.926 41.8Z" fill="#374649"/>
<path d="M248.755 40.45C246.955 41.85 244.455 43.15 241.555 43.15C238.205 43.15 234.655 40.35 234.905 36.6C236.655 36.05 239.655 35.25 242.355 34.5C246.555 33.4 250.655 31.1 250.655 26.9C250.605 23.85 248.705 19.95 242.255 19.95C232.205 19.95 226.005 29.15 226.255 37C226.405 42.95 230.355 47.3 237.955 47.3C243.505 47.3 248.255 43.25 249.705 41.75L248.755 40.45ZM241.955 23.1C243.905 23.1 245.105 24.8 245.105 26.6C245.105 28.6 244.105 30.6 241.605 31.3C239.605 31.9 236.555 32.8 235.105 33.25C235.655 27.3 239.255 23.1 241.955 23.1Z" fill="#374649"/>
<path d="M299.262 20.84C303.042 18.44 305.802 14.42 306.402 11.6C307.662 5.65999 302.982 0.679993 289.182 0.679993C281.022 0.679993 264.162 5.89999 260.802 21.68L264.222 24.5C264.642 16.1 273.342 4.99999 287.442 4.99999C293.262 4.99999 297.462 7.39999 296.322 12.68C295.182 18.14 289.242 20.9 284.742 23.42L286.422 15.44C286.842 13.52 289.182 10.28 291.102 10.28L291.282 9.19999H275.322L275.082 10.28C276.822 10.28 277.782 12.8 277.662 14.72L271.962 41.54C271.602 43.28 269.022 45.8 267.042 45.8L266.862 47H281.862C293.202 47 304.662 41.06 306.582 31.94C307.902 25.64 303.222 21.32 299.262 20.84ZM282.702 43.58C281.142 43.58 280.542 43.1 281.082 40.58L284.082 26.66C286.902 24.98 289.722 23.78 291.882 23.78C296.682 23.78 297.882 28.04 296.982 32.42C295.662 38.66 287.562 43.58 282.702 43.58Z" fill="#374649"/>
<path d="M319.567 41C318.967 42.55 318.117 44.65 316.767 44.65C315.567 44.65 315.867 43.15 316.117 41.85L323.267 8.34999L312.317 10.7L312.117 11.75C313.767 11.75 314.917 13.6 314.567 15.3L308.917 41.85C308.117 45.55 310.267 47.25 314.267 47.25C319.917 47.25 321.267 43 321.967 41H319.567Z" fill="#374649"/>
<path d="M340.674 19.8C332.274 19.8 324.874 25.95 323.224 33.6C321.624 41.25 326.424 47.45 334.824 47.45C343.274 47.45 350.674 41.25 352.274 33.6C353.924 25.95 349.124 19.8 340.674 19.8ZM336.324 44.5C332.674 44.5 330.624 39.8 331.524 33.4C332.424 27.1 335.874 22.45 338.974 22.45C342.474 22.45 344.524 27.45 343.574 33.8C342.624 40.2 339.374 44.5 336.324 44.5Z" fill="#374649"/>
<path d="M398.347 41C397.747 42.55 396.947 44.65 395.597 44.65C394.397 44.65 394.647 43.15 394.897 41.85L397.597 29.35C399.247 21.65 396.047 19.9 392.347 19.9C388.397 19.9 384.247 23.7 382.097 26.2C382.047 24.25 381.397 19.9 376.647 19.9C372.197 19.9 367.397 25.3 365.347 29.1L366.747 20.25L355.997 21.55L355.747 22.6C357.447 22.6 359.047 24.15 358.697 25.85L354.247 47H361.647L364.547 33.1C365.697 31.05 369.897 24.1 372.847 24.1C373.447 24.1 375.797 24.1 374.697 29.35L370.997 47H378.297L381.847 30.05C382.747 27.95 385.797 24.1 388.197 24.1C388.697 24.1 391.497 24 390.397 29.35L387.697 41.85C386.947 45.7 389.147 47.25 392.997 47.25C398.797 47.25 400.147 42.9 400.747 41H398.347Z" fill="#374649"/>
<path d="M438.3 39.35C433.4 39.35 423.5 43.8 417.95 43.8C413.65 43.8 410.7 40.25 410.7 36.6C412.45 36.05 415.45 35.25 418.15 34.5C422.35 33.4 426.5 31.1 426.5 26.9C426.4 23.85 424.5 19.95 418.05 19.95C407.9 19.95 401.6 29.4 402.1 37.3C402.5 43.75 407.85 48.05 414.8 48.05C422.85 48.05 433 42.45 438.3 42.45C443.2 42.45 445.3 47.3 444.55 50.95C444.25 52.3 443.3 53.4 441.55 53.85C441.55 53.85 441.4 55.15 441.55 55.1C444.85 54.3 447.85 51.05 448.45 48.35C449.35 44 447.45 39.35 438.3 39.35ZM417.75 23.1C419.7 23.1 420.9 24.8 420.9 26.6C420.9 28.6 419.9 30.6 417.4 31.3C415.4 31.9 412.35 32.8 410.9 33.25C411.5 27.3 415.1 23.1 417.75 23.1Z" fill="#374649"/>
<path d="M76.9584 58.5L76.8834 58.9C77.7084 58.9 78.0084 60.275 77.8584 61.05L75.0834 74.175C74.9084 74.95 74.1334 75.6 73.3084 75.6C73.3084 75.75 73.2834 75.875 73.2834 76H74.4334C80.6084 76 88.7834 71.475 90.2584 64.6C90.9084 61.5 89.0584 58.5 84.4834 58.5H76.9584ZM78.6334 74.15C78.1834 74.3 77.8084 74.225 77.9584 73.5L80.5834 61.15C80.8584 59.775 81.8834 59.6 83.4334 59.6C86.1334 59.6 87.6084 61.85 86.9834 64.8C85.8834 69.975 81.6834 73.075 78.6334 74.15Z" fill="#52926B"/>
<path d="M101.253 73C100.353 73.75 99.1531 74.55 97.4031 74.55C95.6281 74.55 93.5281 73.1 93.6781 70.575C94.1031 70.45 96.4031 69.85 98.2281 69.4C100.303 68.9 102.053 67.775 102.053 65.675C102.028 64.2 101.178 62.475 98.3031 62.475C93.7031 62.475 90.5781 67.075 90.6531 70.875C90.6781 73.9 92.7531 76.15 96.1531 76.15C98.9281 76.15 100.953 74.25 101.628 73.5L101.253 73ZM98.1281 63.675C99.3531 63.675 99.9781 64.575 99.9781 65.55C99.9781 66.625 99.3281 67.8 97.9531 68.175C96.8031 68.5 94.1531 69.225 93.7781 69.35C94.0531 66.375 96.1031 63.675 98.1281 63.675Z" fill="#52926B"/>
<path d="M105.461 65.325L103.236 76H105.861L107.311 69.05C108.211 67.25 109.511 64.6 110.686 64.6C112.261 64.6 112.011 66.45 112.361 66.45C113.086 66.45 113.911 65.75 114.136 64.7C114.336 63.725 113.911 62.825 113.011 62.6C112.736 62.525 112.411 62.525 112.061 62.575C110.761 62.825 108.836 64.825 107.761 66.95L108.586 62.625L104.461 63.1L104.361 63.525C105.211 63.525 105.661 64.475 105.461 65.325Z" fill="#52926B"/>
<path d="M135.057 59.05C135.107 58.725 134.957 58.5 134.657 58.5H122.857C122.557 58.5 122.307 58.725 122.257 59.05L121.082 63.55H121.507C121.832 61.95 123.907 59.25 126.357 59.25C127.007 59.25 127.157 59.55 126.732 61.65L124.207 73.425C124.057 74.2 123.107 75.6 122.332 75.6L122.282 76H127.882L127.932 75.6C127.107 75.6 126.832 74.2 126.982 73.425L129.482 61.65C129.932 59.55 130.207 59.25 130.882 59.25C133.282 59.25 134.232 61.975 133.907 63.55H134.282L135.057 59.05Z" fill="#52926B"/>
<path d="M136.522 65.325L134.297 76H136.922L138.372 69.05C139.272 67.25 140.572 64.6 141.747 64.6C143.322 64.6 143.072 66.45 143.422 66.45C144.147 66.45 144.972 65.75 145.197 64.7C145.397 63.725 144.972 62.825 144.072 62.6C143.797 62.525 143.472 62.525 143.122 62.575C141.822 62.825 139.897 64.825 138.822 66.95L139.647 62.625L135.522 63.1L135.422 63.525C136.272 63.525 136.722 64.475 136.522 65.325Z" fill="#52926B"/>
<path d="M155.96 73C155.06 73.75 153.86 74.55 152.11 74.55C150.335 74.55 148.235 73.1 148.385 70.575C148.81 70.45 151.11 69.85 152.935 69.4C155.01 68.9 156.76 67.775 156.76 65.675C156.735 64.2 155.885 62.475 153.01 62.475C148.41 62.475 145.285 67.075 145.36 70.875C145.385 73.9 147.46 76.15 150.86 76.15C153.635 76.15 155.66 74.25 156.335 73.5L155.96 73ZM152.835 63.675C154.06 63.675 154.685 64.575 154.685 65.55C154.685 66.625 154.035 67.8 152.66 68.175C151.51 68.5 148.86 69.225 148.485 69.35C148.76 66.375 150.81 63.675 152.835 63.675Z" fill="#52926B"/>
<path d="M175.693 56.9C173.643 56.9 171.343 58.025 170.743 60.875C170.568 61.675 170.418 62.3 170.318 62.775H164.493C164.643 61.3 165.218 58.15 166.743 58.15C168.443 58.15 167.043 60.825 167.893 60.925C168.143 61 168.393 60.975 168.793 60.85C169.393 60.725 169.793 60.325 169.893 59.8C170.193 58.4 168.843 57.125 166.943 57.125C165.343 57.125 162.918 58.125 162.318 60.875C162.143 61.675 161.968 62.3 161.868 62.775H160.343L160.093 63.875H161.618L159.143 75.55C158.968 76.375 158.768 77.275 158.518 78.1C158.143 79.5 157.193 80.75 156.368 80.75C155.443 80.75 155.218 79.5 155.268 78.9C155.268 78.625 155.393 78.5 155.393 78.375C155.393 78.375 155.193 77.725 154.493 77.725C153.618 77.725 153.093 78.4 153.043 79.175C152.918 80.75 154.268 81.675 156.118 81.675C159.518 81.675 161.468 76.95 161.918 74.8L164.268 63.875H170.068L167.593 75.55C167.418 76.375 167.218 77.275 166.968 78.1C166.568 79.5 165.643 80.75 164.818 80.75C163.893 80.75 163.668 79.5 163.718 78.9C163.718 78.625 163.843 78.5 163.843 78.375C163.843 78.375 163.643 77.725 162.943 77.725C162.043 77.725 161.543 78.4 161.493 79.175C161.343 80.775 162.718 81.675 164.543 81.675C167.943 81.675 169.918 76.95 170.368 74.8L172.718 63.875H176.518L176.918 62.775H172.943C173.268 61 173.618 57.9 175.593 57.9C177.218 57.9 176.643 60.075 176.518 60.625C176.518 60.625 176.668 61.2 177.443 61.2C178.393 61.2 178.918 60.625 179.068 59.875C179.418 58.225 177.818 56.9 175.693 56.9Z" fill="#52926B"/>
<path d="M188.611 68.45C189.486 64.25 186.611 62.55 182.936 62.55C181.211 62.55 177.486 63.2 176.686 63.275L176.811 64.925C177.236 64.75 177.886 64.525 178.311 64.475L175.236 78.975C175.011 80 174.086 81.275 173.286 81.275L173.186 81.675H178.786L178.886 81.275C178.036 81.275 177.636 80.15 177.886 78.975L178.611 75.6C182.411 76.375 187.611 72.95 188.611 68.45ZM180.936 63.975C181.436 63.825 182.036 63.75 182.786 63.75C184.861 63.75 186.236 65.175 185.536 68.475C184.761 72.175 181.136 75.075 178.836 74.5L180.936 63.975Z" fill="#52926B"/>
<path d="M202.792 73C202.492 73.775 201.967 74.825 201.292 74.825C200.717 74.825 200.742 74.075 200.867 73.425L203.167 62.625L199.442 63.1L199.342 63.525C200.192 63.525 200.192 64.175 199.942 65.3C199.717 66.325 199.517 67.325 199.317 68.35C198.367 70.95 196.817 74.775 194.467 74.775C193.667 74.775 192.292 74.425 192.967 71.275L194.792 62.625L191.067 63.1L190.967 63.525C191.792 63.525 191.817 64.1 191.567 65.3L190.317 71.275C189.567 74.825 190.867 76.125 193.342 76.125C195.742 76.125 197.817 73.325 198.692 71.55C198.617 72.1 198.467 73.15 198.392 74.1C198.417 75.725 199.517 76.1 200.392 76.1C202.492 76.1 203.517 73.9 203.792 73H202.792Z" fill="#52926B"/>
<path d="M218.026 73C217.726 73.775 217.151 74.825 216.476 74.825C215.901 74.825 215.976 74.075 216.101 73.425L217.451 67.175C218.176 63.65 217.226 62.45 214.751 62.45C212.601 62.45 209.976 65.525 208.976 67.425L209.726 62.625L205.751 63.1L205.676 63.5C206.526 63.5 206.951 64.425 206.776 65.275L204.526 76H207.176L208.626 69.075C209.276 67.825 211.876 64.15 213.476 64.15C214.601 64.15 215.301 64.75 214.801 67.175L213.451 73.425C213.101 75.125 213.801 76.1 215.526 76.1C217.826 76.1 218.726 73.9 219.026 73H218.026Z" fill="#52926B"/>
<path d="M231.785 73C231.485 73.775 230.985 74.625 230.31 74.625C229.635 74.625 229.66 73.45 229.585 72.75C229.235 69.425 228.235 67.875 226.36 67.575C228.36 65.9 229.885 64.425 230.86 64.425C231.41 64.425 231.86 63.95 231.91 63.475C231.935 63.1 231.685 62.625 231.035 62.625C229.985 62.6 228.66 64 227.235 65.325L223.985 68.475L226.51 56.675L222.16 57.65L222.085 58.05C222.91 58.05 223.36 58.975 223.185 59.825L219.76 76H222.41L223.66 70.05C223.66 70.05 224.56 69.275 224.86 69C226.46 69 226.785 71.575 227.06 73.7C227.235 74.925 227.96 76.1 229.435 76.1C231.31 76.1 232.435 73.975 232.785 73H231.785Z" fill="#52926B"/>
<path d="M239.303 73.425C239.178 73.975 238.678 74.875 237.803 74.875C237.003 74.875 236.528 74 236.953 71.9L238.678 63.875H242.153L242.678 62.625H238.928L240.078 57.225L238.053 58.9C237.578 61.2 236.453 62.875 234.928 62.875L234.728 63.875H236.028L234.303 71.95C233.678 74.975 235.078 76.125 237.403 76.125C238.728 76.125 240.653 75.175 240.903 74.1C241.053 73.5 240.828 72.95 240.178 72.95C239.803 72.95 239.453 73.275 239.303 73.425Z" fill="#52926B"/>
<path d="M244.623 76.12C245.583 76.12 246.543 75.31 246.753 74.35C246.963 73.39 246.333 72.58 245.373 72.58C244.413 72.58 243.453 73.39 243.243 74.35C243.063 75.31 243.663 76.12 244.623 76.12Z" fill="#EC6A6A"/>
</svg>
