<svg fill="none" height="200" viewBox="0 0 237 200" width="237" xmlns="http://www.w3.org/2000/svg"><path d="m149.767.558572c-.949.27779-2.153.740778-2.662.995418-1.736.90281-3.82 2.639-4.885 4.0974-.602.78707-11.482 20.34811-24.191 43.45101-17.315 31.4134-23.2877 42.4556-23.7275 43.8445-.463 1.4352-.6019 2.3381-.6019 3.9354.0231 3.8887 1.3195 6.9447 4.2131 9.8387 2.5003 2.5 5.3243 4.028 8.7503 4.745 5.278 1.135 10.556-.949 13.774-5.394 1.458-2.037 46.97-85.0033 47.548-86.7163.764-2.1992.926-5.2317.44-7.5466-.972-4.58357-4.421-8.84301-8.588-10.60235-3.149-1.342653-6.991-1.574145-10.07-.648178z" fill="#fafaed"/><path d="m218.659.373397c-2.709.648173-4.699 1.828783-6.852 4.004803l-1.968 2.01398-42.247 76.78582-42.224 76.786-.741-.741c-.394-.417-14.468-15.765-31.2746-34.122-33.057-36.0663-31.8764-34.8625-35.4877-36.1357-2.2686-.7871-6.0419-.9955-8.38-.4399-5.9262 1.389-10.394 6.3429-11.2968 12.5236-.5556 3.866.6714 8.218 3.1946 11.251.463.578 18.0564 19.792 39.0758 42.687 24.8857 27.107 38.6357 41.923 39.3537 42.409 4.676 3.079 10.324 3.449 15.301.995 2.038-.995 4.26-2.87 5.371-4.491.648-.949 93.662-169.8219 94.912-172.322 1.296-2.5927 1.528-3.6344 1.528-6.7595 0-2.5464-.07-3.102-.649-4.7456-1.643-4.79188-5.764-8.56519-10.579-9.699503-1.852-.4398338-5.208-.4398338-7.037 0z" fill="#374649"/><path d="m12.4923 121.235c-1.2037.185-3.63439 1.065-4.97704 1.76-2.12972 1.111-4.67613 3.796-5.83359 6.111-2.384364 4.745-2.22232 10.209.41669 14.561.60187.972 33.86724 37.548 45.83534 50.349 2.8474 3.056 4.2595 4.098 6.9911 5.139 1.8056.695 2.0602.718 5.1391.718 2.9399 0 3.4029-.07 4.9539-.625 4.653-1.69 8.1948-5.579 9.4449-10.348.2546-.972.3935-2.338.3703-3.819-.0231-2.755-.6944-5.186-2.0834-7.478-1.088-1.759-47.4789-52.409-49.1457-53.636-2.9631-2.176-7.5929-3.311-11.1116-2.732z" fill="#fafaed"/></svg>