<svg fill="none" height="38" viewBox="0 0 148 38" width="148" xmlns="http://www.w3.org/2000/svg" xmlns:xlink="http://www.w3.org/1999/xlink"><linearGradient id="a" gradientUnits="userSpaceOnUse" x1="80" x2="151.906" y1="38" y2="12.7994"><stop offset="0" stop-color="#fecc55"/><stop offset="1" stop-color="#ffe5a8"/></linearGradient><path d="m80.0504 37.733c-1.0633 2.0299 14.9822-8.1194 21.3616-10.0526 6.38-1.9331 15.949 4.2531 22.908 3.8664 6.863-.5799 24.552-32.76752 23.005-31.5109473-1.546 1.2565673-14.015 14.6922473-23.971 16.6254473s-19.815-8.02276-23.8751-2.6098c-4.0597 5.4129-18.3653 21.6517-19.4285 23.6815z" fill="url(#a)"/><g fill="#33325e"><path d="m6.237 8.05516c1.53267 0 2.77933.52066 3.74 1.562.9607 1.03404 1.441 2.37964 1.441 4.03704 0 .3666-.0183.6893-.055.968h-7.557c.13933.7406.451 1.2943.935 1.661.49133.3666 1.09267.55 1.804.55.99 0 1.88833-.341 2.695-1.023l1.683 1.848c-1.188 1.078-2.70233 1.617-4.543 1.617-1.63533 0-2.96633-.5134-3.993-1.54-1.02667-1.0267-1.54-2.3724-1.54-4.037 0-1.672.49867-3.0287 1.496-4.07004.99733-1.04867 2.29533-1.573 3.894-1.573zm-.022 2.47504c-.66733 0-1.20267.187-1.606.561-.396.3666-.66.891-.792 1.573h4.719c-.132-.6894-.396-1.2174-.792-1.584-.396-.3667-.90567-.55-1.529-.55z"/><path d="m18.0321 8.05516c1.3053 0 2.3503.46566 3.135 1.397v-6.292h2.86v15.84004h-2.805v-1.177c-.7847.968-1.848 1.452-3.19 1.452-1.474 0-2.7023-.5354-3.685-1.606-.9827-1.0707-1.474-2.4054-1.474-4.004 0-1.5987.4913-2.9334 1.474-4.00404.9827-1.07067 2.211-1.606 3.685-1.606zm.528 2.67304c-.8213 0-1.485.2823-1.991.847-.506.5573-.759 1.254-.759 2.09s.253 1.5363.759 2.101c.506.5573 1.1697.836 1.991.836.814 0 1.474-.275 1.98-.825.5133-.5574.77-1.2614.77-2.112 0-.8507-.2567-1.551-.77-2.101-.506-.5574-1.166-.836-1.98-.836z"/><path d="m29.4778 23.4442h-3.146l3.729-6.71-4.598-8.39304h3.256l2.926 5.47804 2.838-5.47804h3.146z"/><path d="m43.6666 8.05516c1.6573 0 3.0323.53533 4.125 1.606 1.1 1.06334 1.65 2.39804 1.65 4.00404s-.55 2.9443-1.65 4.015c-1.0927 1.0633-2.4677 1.595-4.125 1.595-1.65 0-3.0214-.5317-4.114-1.595-1.0927-1.0707-1.639-2.409-1.639-4.015s.5463-2.9407 1.639-4.00404c1.0926-1.07067 2.464-1.606 4.114-1.606zm0 2.67304c-.814 0-1.4887.275-2.024.825-.5354.55-.803 1.254-.803 2.112s.2676 1.562.803 2.112c.5353.55 1.21.825 2.024.825.8213 0 1.4996-.275 2.035-.825.5353-.55.803-1.254.803-2.112s-.2677-1.562-.803-2.112c-.5354-.55-1.2137-.825-2.035-.825z"/><path d="m61.5655 14.4572c0 .814-.1357 1.5363-.407 2.167-.2714.6306-.6454 1.1366-1.122 1.518-.4694.374-1.001.6563-1.595.847-.5867.1906-1.2247.286-1.914.286-.5427 0-1.0597-.0587-1.551-.176-.4914-.1174-.9534-.3007-1.386-.55-.4254-.2567-.7957-.5684-1.111-.935-.308-.374-.5537-.8287-.737-1.364-.176-.5427-.264-1.1404-.264-1.793v-6.11604h2.871v5.86304c0 .814.198 1.419.594 1.815.396.3886.924.583 1.584.583s1.188-.1944 1.584-.583c.396-.396.594-1.001.594-1.815v-5.86304h2.86z"/><path d="m69.2961 8.05516c.8946 0 1.705.176 2.431.528.7333.34466 1.3456.83966 1.8369 1.48504l-2.068 1.727c-.6673-.7114-1.4263-1.067-2.277-1.067-.7553 0-1.3896.2713-1.903.814-.5133.5426-.7699 1.2503-.7699 2.123 0 .8726.2529 1.5803.7589 2.123.5134.5426 1.1477.814 1.903.814.88 0 1.6537-.3594 2.3211-1.078l2.046 1.749c-1.0487 1.3346-2.475 2.002-4.279 2.002-1.6867 0-3.0544-.528-4.1031-1.584-1.0486-1.056-1.573-2.398-1.573-4.026s.5244-2.97 1.573-4.02604c1.0487-1.056 2.4164-1.584 4.1031-1.584z"/><path d="m85.7044 19.0002h-2.805v-1.177c-.7846.968-1.848 1.452-3.19 1.452-1.474 0-2.7023-.5354-3.685-1.606-.9826-1.0707-1.474-2.4054-1.474-4.004 0-1.5987.4914-2.9334 1.474-4.00404.9827-1.07067 2.211-1.606 3.685-1.606 1.3494 0 2.4127.48766 3.19 1.463v-1.177h2.805zm-5.467-8.272c-.8213 0-1.485.2823-1.991.847-.506.5573-.759 1.254-.759 2.09s.253 1.5363.759 2.101c.506.5573 1.1697.836 1.991.836.814 0 1.474-.275 1.98-.825.5134-.5574.77-1.2614.77-2.112 0-.8507-.2566-1.551-.77-2.101-.506-.5574-1.166-.836-1.98-.836z"/><path d="m96.2371 10.8932h-3.861v3.894c0 .6233.1467 1.0816.44 1.375.2933.2933.6783.44 1.155.44.572 0 1.2393-.231 2.002-.693l1.056 2.244c-1.078.748-2.255 1.122-3.531 1.122-1.32 0-2.3173-.3594-2.992-1.078-.6673-.726-1.001-1.7857-1.001-3.179v-4.125h-2.057v-2.55204h2.057v-3.168h2.871v3.168h3.861z"/><path d="m103.155 8.05516c1.532 0 2.779.52066 3.74 1.562.96 1.03404 1.441 2.37964 1.441 4.03704 0 .3666-.019.6893-.055.968h-7.557c.139.7406.451 1.2943.935 1.661.491.3666 1.092.55 1.804.55.99 0 1.888-.341 2.695-1.023l1.683 1.848c-1.188 1.078-2.703 1.617-4.543 1.617-1.636 0-2.967-.5134-3.9933-1.54-1.0266-1.0267-1.54-2.3724-1.54-4.037 0-1.672.4987-3.0287 1.496-4.07004.9973-1.04867 2.2953-1.573 3.8943-1.573zm-.022 2.47504c-.668 0-1.203.187-1.606.561-.396.3666-.66.891-.792 1.573h4.719c-.132-.6894-.396-1.2174-.792-1.584-.396-.3667-.906-.55-1.529-.55z"/><path d="m114.95 8.05516c1.305 0 2.35.46566 3.135 1.397v-6.292h2.86v15.84004h-2.805v-1.177c-.785.968-1.848 1.452-3.19 1.452-1.474 0-2.703-.5354-3.685-1.606-.983-1.0707-1.474-2.4054-1.474-4.004 0-1.5987.491-2.9334 1.474-4.00404.982-1.07067 2.211-1.606 3.685-1.606zm.528 2.67304c-.822 0-1.485.2823-1.991.847-.506.5573-.759 1.254-.759 2.09s.253 1.5363.759 2.101c.506.5573 1.169.836 1.991.836.814 0 1.474-.275 1.98-.825.513-.5574.77-1.2614.77-2.112 0-.8507-.257-1.551-.77-2.101-.506-.5574-1.166-.836-1.98-.836z"/></g></svg>