<svg fill="none" height="1300" viewBox="0 0 1300 1300" width="1300" xmlns="http://www.w3.org/2000/svg" xmlns:xlink="http://www.w3.org/1999/xlink"><linearGradient id="a" gradientUnits="userSpaceOnUse" x1="523.77" x2="1077.32" y1="476.416" y2="1188.18"><stop offset="0" stop-color="#fafaed"/><stop offset="1" stop-color="#fff" stop-opacity="0"/></linearGradient><rect fill="url(#a)" height="653" rx="173" transform="matrix(.90717844 -.42074609 .42074609 .90717844 -182.574557 44.249116)" width="960" x="9" y="435.916"/><g fill="#374649"><path d="m862.995 167.651c-3.6.5-10.8 2.5-16 4.3-8.5 2.9-603.2 265.1-615.5 271.3-20.8 10.5-36.3 29.3-44 53.3-4.9 15.2-4.6 37.6.6 52.9 1.1 3 25.7 59.2 54.7 124.9 34 77 53.9 121 56.2 124 10.5 13.8 28.3 19.4 45.3 14.2 21-6.5 33.4-29.9 26.8-50.7-1-3.2-25.1-58.4-53.5-122.7-28.4-64.4-51.5-117.6-51.4-118.4.2-.8 1.4-2.3 2.8-3.3 3.5-2.6 604.6-267.9 606.8-267.9 1.1 0 2.6.8 3.4 1.7 2.5 2.9 170.805 386.9 170.805 389.7 0 1.6-.9 3.1-2.2 4-1.3.8-39.2 17.7-84.305 37.6-45.1 19.9-84.2 37.5-86.8 39.2-5.9 3.8-10.8 9.7-14.4 17.4-2.5 5.3-2.8 7-2.8 16.9 0 10.4.2 11.4 3.2 17.6 7.9 16.1 26.5 25.9 43.4 22.9 6.7-1.2 7.1-1.4 106.905-45.5 38.2-16.8 72-32 75-33.7 21.1-11.8 35.9-31.4 42.6-56.3 2.7-10.1 2.5-32.1-.3-42.5-3-10.7-175.405-402.8-181.005-411.4-11.8-18.3-30.6-31.8-52.1-37.2-10.8-2.8-24.9-3.7-34.2-2.3z"/><path d="m579.995 433.151c-22.8 6.1-36.1 30.7-28.4 52.8 2.5 7 2 8.6-5.2 15.6-36.5 36-36.4 93 .2 128.1 11.6 11 22.7 17.4 38.9 22.1 7.8 2.3 9 2.3 55.5 2.4 26.1.1 48.1.2 48.7.3.7.1 2 1.2 2.9 2.6 1.4 2.1 1.4 3 .4 5.4-.6 1.6-1.7 3.2-2.3 3.4-41.1 16.7-69.3 28.4-73 30.5-9.9 5.3-17.6 16.6-19.9 29.1-3.1 16.8 6.9 35.9 22.8 43.3 11.9 5.6 22.3 5.6 35.7.3 3.7-1.5 7.4-2.5 8.2-2.2.8.4 2.5 2.8 3.9 5.5 6.9 13.7 25.3 23.6 40 21.6 20.9-2.8 35.6-17.9 37.3-38.4.4-4.5 0-8.3-1.2-12.5-3.3-11.6-3.7-10.4 6.3-20.8 4.9-5.2 10.8-12.5 13-16.3 12.9-21.7 16-47.9 8.6-71.5-9.1-29.1-30.6-50.5-59.9-59.6l-9-2.7-49.8-.6c-42.8-.4-49.9-.7-50.7-2-1.4-2.2-1.2-7.6.3-8.8.6-.5 16.9-7.3 36-15.1 39.8-16.1 39.4-16 44.8-20.8 12.3-11.1 17-28.3 11.9-43.4-2.6-7.7-5.6-12.4-11.3-17.6-12.1-11.1-28.6-14-44.2-7.8-8.6 3.5-10.2 3.1-13.8-3-9.7-16.8-28.4-24.8-46.7-19.9z"/><path d="m277.695 874.551c-38.5 6.5-67.6 37.3-67.7 71.7 0 3.4 2.2 19.6 4.9 36 2.8 16.4 10 60.799 16.2 98.799 6.1 37.9 12 71.3 13.1 74.1 6.1 16.7 20.6 26.8 38.3 26.7 22.1-.1 39.5-16.1 41.2-37.8.3-4.6-2.8-25.9-13.6-92.2-10.6-64.499-13.9-86.799-13.2-88.599.6-1.4 2-3.5 3.2-4.6 2.3-2.1 2.9-2.1 52.9-2.1 54.2 0 53.3-.1 56 5 .5 1 4.8 43.599 9.5 94.699 5.1 56.5 9 94.5 9.9 96.9 5.5 15.7 17.2 25.7 33.5 28.5 16.4 2.9 35.7-7.3 42.7-22.5 5.4-11.8 5.5-8.3-3-101.7-4.3-47-7.9-87.599-8-90.199-.1-4.3.3-5.2 3.2-7.8l3.2-2.9h62c41.9 0 62.7.3 64.3 1.1 5.4 2.5 5.2-2.1 5.7 99.499l.5 94 3.8 7.6c12.9 26.2 46.7 31.4 66.6 10.3 6.1-6.5 9.6-13.5 11-22.5.7-4.2 1.1-38.4 1.1-95.3v-88.899l2.9-2.9 2.9-2.9h73c72.2 0 73 0 75.6 2.1 1.4 1.1 2.9 3.4 3.4 5.1.5 1.9-2.1 35-7.2 90.899-7.3 80.7-7.9 88.4-6.7 94.1 3.4 16.5 15.4 28.7 31.8 32.4 6.1 1.3 8.7 1.5 13.9.6 15.9-2.6 28.6-13.2 33.8-28 1-2.8 4.4-35.7 9.6-93 4.4-48.8 8.3-90.899 8.6-93.599.5-3.6 1.4-5.8 3.4-7.8l2.8-2.8h39.705c43.6 0 44 .1 46.5 6 1.4 3.3.8 6.9-22.7 150.499-3.9 23.9-4.3 27.7-3.4 33.3 2.9 18.3 16.2 31.9 34.5 35.3 18 3.3 38-8.1 44.5-25.5 3-8.1 34.1-199.699 34.1-210.099-.1-34.6-27.4-64-66-71.1-6.3-1.1-72.105-1.3-397.505-1.2-214.5 0-392.2.4-394.8.8z"/></g></svg>