<svg fill="none" height="1300" viewBox="0 0 1300 1300" width="1300" xmlns="http://www.w3.org/2000/svg" xmlns:xlink="http://www.w3.org/1999/xlink"><linearGradient id="a" gradientUnits="userSpaceOnUse" x1="610.77" x2="1164.32" y1="416.499" y2="1128.26"><stop offset="0" stop-color="#fafaed"/><stop offset="1" stop-color="#fff" stop-opacity="0"/></linearGradient><rect fill="url(#a)" height="653" rx="173" width="960" x="96" y="375.999"/><g fill="#374649"><path d="m427.3 139.377c-8.8 2.9-15.8 9-19.7 17.5-2.1 4.5-2.1 5.8-2.6 92.6l-.5 88-2.6 5.5c-9.6 20.2-35.7 25-51.3 9.4-2.1-2.2-5.1-6.4-6.5-9.4l-2.6-5.5-.5-50.2-.5-50.1-3-4.4c-1.7-2.3-5.1-5.4-7.5-6.8l-4.5-2.5-52.4-.3c-34-.2-54.2.1-57.5.8-15.2 3.1-27.6 14.2-32.5 28.8l-2.1 6.1v296.1c0 266.6.2 296.9 1.6 303.8 3.4 16.4 10.2 29.6 21.8 42 11 11.7 25 19.9 41.8 24.4l8.3 2.2 167.3.3 167.4.4-.9-9.8c-1-12.6-1-54 0-66.6l.9-9.7h-151.9c-106.8 0-153-.3-155.8-1.1-5.2-1.4-13.2-9.5-14-14.1-.3-1.8-.4-87.3-.3-189.9l.3-186.5 2.8-4.3c2-2.9 4.4-5 8-6.7l5.2-2.4h292.4 292.5l4.3 2.1c5.4 2.6 9.8 7.9 11.2 13.5.7 2.8 1.1 20.1 1.1 48.9v44.7l9.8-.9c12.6-1.1 52.8-1 66 .1l10.2.8v-139.8c0-91.7-.4-142.1-1.1-146.4-2.1-13.5-10.6-25.8-21.8-31.4-10.8-5.5-11.8-5.6-73.8-5.6h-57.2l-2.8-2.4-2.8-2.4-.6-27.4c-.7-32.3-1.1-34-9.8-42.9-16.1-16.3-42.2-11.8-51.9 8.9l-2.7 5.7-.5 88c-.5 81.4-.6 88.3-2.3 91.9-2.9 6.5-8.2 12-14.9 15.6-5.7 3.1-7.1 3.4-14.3 3.4-6 0-9.2-.5-12.6-2.1-6.3-2.8-12.5-8.7-15.7-14.7l-2.7-5.1-.5-50c-.5-48.8-.6-50.1-2.7-54-1.1-2.2-3.4-5.2-5-6.7-6.3-6-2.8-5.8-105.4-5.8h-93.9l-3.2-2.9-3.3-2.9-.5-27.9-.5-27.8-2.8-5.7c-3.2-6.5-9-12.2-15.6-15.1-5.8-2.5-17-3.2-22.8-1.3z"/><path d="m904.7 608.077c-34 3-66.4 11.9-97.2 26.8-30.6 14.8-50.8 29.2-75.5 54-27.1 27.2-43.6 51-58.5 84.6-24.8 56.2-30 119.6-14.5 179.9 12.5 49.003 36.5 91.003 72.5 127.103 42.2 42.4 94.2 68.8 154.8 78.7 18.1 3 62.1 3.2 79.7.5 60.9-9.5 112.1-34.7 154.9-76.1 44.4-43.2 71.8-97.003 81.8-160.603 2.5-16 2.5-59.6.1-75.7-12.4-81.2-55.3-149.4-122.3-194.1-50.8-33.9-115.5-50.5-175.8-45.1zm151 174c7.1 3.4 11.6 8.1 15.1 15.7 2.1 4.8 2.4 6.4 2 14-.3 5.6-1.1 9.9-2.2 12-3.8 7.3-130.4 174.8-135.7 179.703-10.7 9.7-24.3 15.3-39 16.2-12.1.7-21.9-1.3-33.2-6.9-7.8-3.9-9.9-5.8-45.3-41.003-26-25.8-38-38.5-40-42.1-2.6-4.7-2.9-6.1-2.9-14.7 0-8 .4-10.2 2.3-13.8 3.5-6.6 8.8-11.9 15-14.9 4.7-2.3 7-2.8 13.2-2.8 13.9 0 13.2-.5 52.2 38.4 30.1 29.9 35 34.3 36.2 33.1.7-.8 29-38.5 62.9-83.6 33.8-45.2 62.6-83.2 63.9-84.4 6.3-5.9 16.1-9.2 25.3-8.2 2.2.2 6.8 1.7 10.2 3.3z"/></g></svg>